<svg width="501" height="602" viewBox="0 0 501 602" fill="none" xmlns="http://www.w3.org/2000/svg">
<g style="mix-blend-mode:multiply" opacity="0.5">
<path d="M49.2554 503.347C32.8802 469.517 21.4736 559.586 -12.8398 577.591C-157.203 653.262 -160.894 520.708 -274.583 467.851C-324.059 444.843 -319.287 184.31 -294.428 181.314C-124.699 160.804 -293.971 141.52 -237.251 124.316C-155.346 99.4594 -94.9526 94.7043 -55.2244 122.062C50.6446 194.947 123.982 60.934 105.634 244.746C95.6944 344.388 365.816 161.081 376.336 7.87541C378.467 -23.0987 414.826 78.8142 447.4 193.084C479.974 307.355 508.682 433.927 495.564 452.19C471.163 486.11 432.185 521.383 332.211 537.316C131.23 569.35 68.6861 543.444 49.2554 503.347Z" stroke="url(#paint0_linear)" stroke-width="3" stroke-miterlimit="10"/>
<path d="M493.685 450.069C470.134 483.429 431.383 518.408 333.046 534.337C295.73 540.402 263.211 544.45 234.97 546.725C114.012 556.269 70.0137 533.78 53.9771 501.842C37.4221 468.903 26.0548 556.471 -7.80544 573.889C-150.041 647.18 -155.018 517.302 -266.182 465.512C-282.939 457.646 -293.742 421.931 -299.935 378.752C-305.359 341.438 -307.595 298.651 -307.045 263.824C-306.347 220.207 -299.069 183.585 -289.506 182.441C-123.628 162.978 -288.133 143.676 -232.427 126.923C-151.99 102.748 -92.5489 98.2168 -53.3128 125.066C50.6075 196.378 122.636 66.3635 104.966 246.409C101.693 280.066 130.668 281.135 170.524 261.997C246.487 225.461 362.712 114.264 371.814 15.963C374.663 -14.6191 411.61 84.3288 442.922 196C474.452 308.589 506.364 432.107 493.685 450.069Z" stroke="url(#paint1_linear)" stroke-width="3" stroke-miterlimit="10"/>
<path d="M491.875 447.935C469.105 480.749 430.615 515.426 333.922 531.387C297.181 537.48 265.135 541.577 237.332 543.908C118.873 553.492 75.0448 531.681 58.7399 500.366C42.0393 468.311 30.6839 553.419 -2.68894 570.241C-142.762 641.147 -149.218 514.232 -257.733 463.236C-274.414 455.39 -285.341 419.414 -292.192 376.508C-298.13 339.296 -301.53 297.096 -302.094 264.198C-302.764 222.667 -294.551 184.828 -284.564 183.671C-122.523 165.145 -282.317 145.909 -227.584 129.632C-148.614 106.139 -90.0974 101.791 -51.3466 128.167C50.6318 197.941 121.379 71.8826 104.353 248.168C101.205 281.195 129.446 282.516 168.259 264.226C242.206 229.193 356.091 120.203 367.339 24.1127C370.865 -6.10477 408.435 89.8712 438.492 198.977C468.971 309.852 504.087 430.314 491.875 447.935Z" stroke="url(#paint2_linear)" stroke-width="3" stroke-miterlimit="10"/>
<path d="M490.023 445.773C468.07 478.034 429.813 512.452 334.791 528.402C298.625 534.524 267.03 538.745 239.652 541.063C123.747 550.961 80.0691 529.548 63.4615 498.862C46.581 467.697 35.2648 550.305 2.34522 566.539C-135.6 635.065 -143.458 510.956 -249.36 460.938C-265.931 453.107 -277.021 416.843 -284.524 374.243C-291.044 337.147 -295.569 295.56 -297.185 264.544C-299.255 225.107 -290.109 186.051 -279.663 184.874C-121.466 167.251 -276.507 148.107 -222.782 132.315C-145.278 109.504 -87.6804 105.373 -49.4558 131.247C50.5739 199.448 120.039 77.3467 103.665 249.907C100.648 282.338 128.19 283.904 165.885 266.441C237.815 232.91 349.388 126.087 362.754 32.2484C366.992 2.38867 405.15 95.3995 433.952 201.941C463.482 311.08 501.776 428.528 490.023 445.773Z" stroke="url(#paint3_linear)" stroke-width="3" stroke-miterlimit="10"/>
<path d="M488.212 443.638C467.048 475.387 429.017 509.511 335.666 525.451C300.075 531.602 268.92 535.878 242.02 538.28C128.629 548.286 85.1411 527.476 68.231 497.42C51.2116 467.172 39.8938 547.253 7.42732 562.899C-128.356 629.038 -137.617 507.734 -240.945 458.668C-257.407 450.85 -268.695 414.305 -276.821 371.971C-283.89 334.983 -289.574 294.018 -292.275 264.89C-295.747 227.546 -285.667 187.272 -274.755 186.111C-120.45 169.329 -270.69 150.338 -217.945 134.99C-141.916 112.826 -85.2151 108.837 -47.4966 134.314C50.7493 200.695 118.74 82.8379 103.038 251.597C100.18 283.392 126.954 285.217 163.607 268.6C233.52 236.573 342.816 131.91 358.266 40.3292C363.243 10.7862 401.961 100.873 429.509 204.85C458.001 312.343 499.464 426.741 488.212 443.638Z" stroke="url(#paint4_linear)" stroke-width="3" stroke-miterlimit="10"/>
<path d="M486.361 441.477C466.012 472.672 428.208 506.502 336.501 522.473C301.485 528.652 270.809 533.012 244.307 535.442C133.463 545.549 90.1038 525.39 72.9185 495.923C55.7536 466.559 44.3929 544.084 12.4342 559.237C-121.357 622.668 -131.851 504.493 -232.572 456.37C-248.965 448.539 -260.403 411.775 -269.153 369.707C-276.804 332.834 -283.605 292.517 -287.365 265.236C-292.232 230.02 -281.225 188.495 -269.854 187.313C-119.413 171.331 -264.88 152.536 -213.143 137.672C-138.546 116.184 -82.7636 112.412 -45.6056 137.394C50.7534 202.154 117.407 88.3362 102.384 253.329C99.6504 284.494 125.712 286.674 161.302 270.801C229.267 240.441 336.277 137.726 353.75 48.4514C359.473 19.2593 398.717 106.429 425.037 207.8C452.52 313.605 497.181 424.914 486.361 441.477Z" stroke="url(#paint5_linear)" stroke-width="3" stroke-miterlimit="10"/>
<path d="M484.55 439.342C464.99 470.025 427.413 503.561 337.377 519.522C302.936 525.73 272.705 530.18 246.668 532.624C138.337 542.84 95.1692 523.284 77.6813 494.447C60.405 465.959 49.0083 540.963 17.5096 555.563C-114.168 616.546 -126.016 501.237 -224.157 454.1C-240.441 446.283 -252.077 409.237 -261.444 367.469C-269.677 330.711 -277.596 291.043 -282.449 265.617C-288.737 232.569 -276.769 189.785 -264.911 188.543C-118.348 173.293 -259.022 154.796 -208.3 140.381C-135.17 119.575 -80.3121 115.986 -43.6395 140.494C50.7983 203.64 115.787 93.82 101.771 255.089C99.1277 285.63 124.538 288.116 159.037 273.03C225.027 244.2 329.848 143.556 349.275 56.6007C355.73 27.6911 395.508 111.978 420.607 210.777C447.004 314.874 494.869 423.128 484.55 439.342Z" stroke="url(#paint6_linear)" stroke-width="3" stroke-miterlimit="10"/>
<path d="M482.705 437.215C463.927 467.352 426.611 500.586 338.218 516.578C304.346 522.781 274.56 527.32 248.996 529.814C143.219 540.165 100.241 521.213 82.4098 492.977C64.9947 465.407 53.5963 537.883 22.5508 551.895C-107.012 610.43 -120.188 497.948 -215.783 451.803C-231.958 443.999 -243.792 406.672 -253.741 365.198C-262.523 328.548 -271.587 289.569 -277.504 265.956C-285.209 235.112 -272.292 191.001 -259.976 189.739C-117.291 175.22 -253.178 156.987 -203.463 143.057C-131.8 122.932 -77.8674 119.527 -41.7144 143.568C50.8365 205.093 114.413 99.2909 101.117 256.821C98.5981 286.732 123.282 289.505 156.732 275.231C220.711 247.938 323.44 149.31 344.759 64.723C351.946 36.0959 392.264 117.534 416.136 213.727C441.529 316.171 492.592 421.335 482.705 437.215Z" stroke="url(#paint7_linear)" stroke-width="3" stroke-miterlimit="10"/>
<path d="M480.888 435.046C462.899 464.671 425.843 497.605 339.087 513.593C305.791 519.824 276.483 524.447 251.323 527.003C148.053 537.428 105.279 519.148 87.1316 491.473C69.6051 464.78 58.1774 534.769 27.5919 548.227C-99.8569 604.314 -114.394 494.665 -207.375 449.498C-223.447 441.675 -235.507 404.107 -246.046 362.892C-255.416 326.323 -265.605 288.137 -272.567 266.261C-281.714 237.661 -267.822 192.182 -255.047 190.901C-116.219 177.038 -247.34 159.144 -198.599 145.691C-128.403 126.248 -75.3953 123.026 -39.7275 146.593C50.9022 206.504 113.108 104.748 100.518 258.47C98.1236 287.752 122.081 290.81 154.481 277.35C216.451 251.594 317.156 154.969 340.298 72.7629C348.252 44.4114 389.069 122.973 411.72 216.595C436.048 317.434 490.281 419.549 480.888 435.046Z" stroke="url(#paint8_linear)" stroke-width="3" stroke-miterlimit="10"/>
<path d="M479.043 432.918C461.842 462.031 425.041 494.63 339.963 510.642C307.276 516.895 278.379 521.615 253.685 524.186C152.962 534.712 110.351 517.076 91.9009 490.031C74.3042 464.242 62.8063 531.717 32.674 544.586C-92.6605 598.225 -108.526 491.403 -198.954 447.263C-214.95 439.46 -227.174 401.604 -238.33 360.689C-248.283 324.236 -259.569 286.8 -267.644 266.676C-278.186 240.381 -263.367 193.472 -250.133 192.172C-115.203 178.938 -241.517 161.41 -193.79 148.407C-125.068 129.612 -72.9782 126.607 -37.83 149.707C50.8785 208.005 111.706 110.26 99.8363 260.243C97.5664 288.894 120.797 292.239 152.114 279.599C212.074 255.38 310.823 160.744 335.728 80.9671C344.482 52.8845 385.736 128.618 407.194 219.627C430.573 318.73 488.011 417.791 479.043 432.918Z" stroke="url(#paint9_linear)" stroke-width="3" stroke-miterlimit="10"/>
<path d="M477.233 430.784C460.821 459.384 424.212 491.518 340.832 507.657C308.706 513.87 280.261 518.714 256.005 521.341C157.796 531.975 115.417 514.97 96.6228 488.527C78.9147 463.615 67.3808 528.568 37.7152 540.918C-85.4639 592.137 -102.732 488.121 -190.58 444.965C-206.467 437.176 -218.889 399.039 -230.662 358.424C-241.197 322.086 -253.56 285.504 -262.734 267.022C-274.664 243.067 -258.924 194.694 -245.224 193.408C-114.193 180.803 -235.7 163.642 -188.981 151.123C-121.725 133.011 -70.5609 130.188 -35.8979 152.815C50.9236 209.491 110.373 115.758 99.2234 262.002C97.0781 290.024 119.582 293.655 149.849 281.827C207.806 259.18 304.661 166.486 331.219 89.1234C340.767 61.2755 382.465 134.215 402.729 222.611C425.064 320.034 485.7 416.005 477.233 430.784Z" stroke="url(#paint10_linear)" stroke-width="3" stroke-miterlimit="10"/>
<path d="M475.381 428.622C459.764 456.745 423.328 488.132 341.667 504.679C310.143 511.058 282.15 515.848 258.326 518.496C162.664 529.232 120.482 512.864 101.338 486.989C83.5593 462.981 71.9551 525.42 42.7427 537.182C-78.3222 585.952 -96.9174 484.763 -182.186 442.592C-197.97 434.783 -210.617 396.406 -222.973 356.084C-234.09 319.861 -247.496 284.127 -257.838 267.3C-271.074 245.74 -254.489 195.882 -240.303 194.536C-113.176 182.525 -229.862 165.799 -184.124 153.724C-118.335 136.293 -68.0888 133.687 -33.9522 155.813C50.9482 210.875 109.027 121.188 98.5899 263.659C96.5759 291.085 118.381 294.961 147.564 283.953C203.512 262.843 298.555 172.145 326.723 97.1703C337.107 69.5844 379.173 139.709 398.279 225.486C419.59 321.331 483.389 414.219 475.381 428.622Z" stroke="url(#paint11_linear)" stroke-width="3" stroke-miterlimit="10"/>
<path d="M473.571 426.487C458.742 454.098 422.635 485.527 342.542 501.728C311.567 507.999 284.04 512.982 260.66 515.72C167.504 526.529 125.602 510.854 106.073 485.554C88.2175 462.415 76.5497 522.374 47.8248 533.541C-71.1257 579.864 -91.0552 481.466 -173.772 440.322C-189.446 432.527 -202.284 393.903 -215.271 353.812C-226.97 317.705 -241.364 282.914 -252.894 267.639C-267.395 248.502 -250.012 197.097 -235.367 195.731C-112.118 184.274 -224.018 167.99 -179.287 156.399C-114.966 139.65 -65.6441 137.227 -31.9928 158.879C50.9863 212.328 107.687 126.652 97.9701 265.384C96.0807 292.18 117.159 296.342 145.293 286.147C199.231 266.574 292.557 177.818 322.242 105.285C333.453 77.9273 375.929 145.264 393.842 228.429C414.081 322.634 481.119 412.46 473.571 426.487Z" stroke="url(#paint12_linear)" stroke-width="3" stroke-miterlimit="10"/>
<path d="M471.719 424.326C457.686 451.458 421.833 482.552 343.418 498.777C313.018 505.077 285.935 510.15 263.021 512.902C172.413 523.813 130.708 508.776 110.836 484.078C92.9441 461.836 81.1719 519.288 52.9069 529.901C-63.8883 573.803 -85.193 478.17 -165.35 438.086C-180.956 430.277 -193.986 391.406 -207.555 351.609C-219.844 315.583 -235.151 281.755 -247.971 268.054C-263.593 251.346 -245.557 198.388 -230.453 197.002C-111.115 186.105 -218.194 170.256 -174.471 159.149C-111.624 143.048 -63.2203 140.843 -30.0885 162.028C50.9695 213.862 106.334 132.225 97.2885 267.157C95.5235 293.323 115.875 297.771 142.96 288.389C194.888 270.353 286.54 183.567 317.698 113.448C329.765 86.2772 372.589 150.875 389.343 231.42C408.572 323.938 478.807 410.674 471.719 424.326Z" stroke="url(#paint13_linear)" stroke-width="3" stroke-miterlimit="10"/>
<path d="M469.908 422.191C456.637 448.853 421.031 479.577 344.287 495.793C314.455 502.086 287.852 507.242 265.342 510.058C177.24 521.042 135.815 506.697 115.557 482.574C97.5887 461.202 85.7462 516.14 57.9412 526.199C-56.7397 567.653 -79.3787 474.812 -156.983 435.755C-172.48 427.96 -185.707 388.807 -199.893 349.31C-212.765 313.399 -228.875 280.55 -243.068 268.366C-259.743 254.074 -241.121 199.576 -225.558 198.171C-110.104 187.793 -212.391 172.42 -169.683 161.763C-108.302 146.343 -60.8234 144.322 -28.177 165.033C50.9666 215.287 104.946 137.627 96.6208 268.82C95.0147 294.349 114.606 299.091 140.607 290.528C190.566 274.057 280.645 189.22 313.176 121.536C326.139 94.5795 369.236 156.417 384.865 234.335C403.07 325.276 476.537 408.915 469.908 422.191Z" stroke="url(#paint14_linear)" stroke-width="3" stroke-miterlimit="10"/>
<path d="M468.063 420.063C455.553 446.254 420.228 476.602 345.128 492.848C315.872 499.17 289.714 504.417 267.676 507.281C182.122 518.367 140.928 504.653 120.293 481.138C102.322 460.657 90.3409 513.094 62.9959 522.599C-49.5297 561.632 -73.5098 471.55 -148.562 433.519C-163.956 425.703 -177.409 386.311 -192.177 347.107C-205.631 311.311 -222.49 279.357 -238.145 268.781C-255.735 256.878 -236.665 200.867 -220.644 199.442C-109.108 189.59 -206.561 174.72 -164.832 164.507C-104.919 149.769 -58.3653 147.93 -26.2384 168.174C50.984 216.815 103.593 143.201 95.9802 270.62C94.4986 295.519 113.363 300.547 138.314 292.798C186.223 277.836 274.812 195.003 308.632 129.699C322.493 102.957 365.869 162.068 380.366 237.326C397.568 326.613 474.233 407.163 468.063 420.063Z" stroke="url(#paint15_linear)" stroke-width="3" stroke-miterlimit="10"/>
<path d="M466.246 417.895C454.497 443.614 419.419 473.593 345.997 489.863C317.316 496.214 291.63 501.509 269.997 504.436C186.983 515.589 146.068 502.567 125.014 479.634C107.001 460.017 94.9219 509.98 68.0301 518.897C-42.3402 555.51 -67.6955 468.192 -140.188 431.221C-155.472 423.419 -169.158 383.752 -184.509 344.842C-198.58 309.168 -216.084 278.09 -233.235 269.127C-251.652 259.524 -232.223 202.089 -215.701 200.672C-108.057 191.305 -200.71 176.946 -159.989 167.216C-101.543 153.16 -55.9072 151.539 -24.3065 171.282C50.9946 218.308 102.26 148.699 95.3671 272.38C94.0168 296.683 112.155 301.997 136.043 294.992C181.949 281.601 269.109 200.724 304.157 137.849C318.956 111.348 362.563 167.672 375.936 240.303C392.066 327.951 471.956 405.37 466.246 417.895Z" stroke="url(#paint16_linear)" stroke-width="3" stroke-miterlimit="10"/>
<path d="M464.401 415.767C453.454 441.043 418.624 470.652 346.839 486.919C318.733 493.299 293.492 498.684 272.324 501.626C191.817 512.853 151.209 500.482 129.743 478.165C111.721 459.403 99.51 506.9 73.0714 515.229C-35.1777 549.428 -61.8467 464.827 -131.815 428.923C-146.996 421.102 -160.907 381.194 -176.814 342.536C-191.473 306.943 -209.568 276.659 -228.332 269.439C-247.561 262.026 -227.753 203.27 -210.807 201.84C-107.06 192.924 -194.907 179.109 -155.194 169.864C-98.2138 156.49 -53.5033 155.052 -22.388 174.321C50.9987 219.768 100.92 154.163 94.6995 274.043C93.4738 297.716 110.885 303.316 133.724 297.124C177.62 285.271 263.434 206.405 299.628 145.902C315.357 119.609 359.176 173.22 371.451 243.185C386.564 329.289 469.692 403.646 464.401 415.767Z" stroke="url(#paint17_linear)" stroke-width="3" stroke-miterlimit="10"/>
<path d="M462.591 413.633C452.412 438.472 417.856 467.671 347.715 483.969C320.184 490.377 295.381 495.818 274.651 498.815C196.678 510.075 156.357 498.431 134.471 476.695C116.475 458.783 104.098 503.82 78.1192 511.595C-27.9746 543.374 -55.9913 461.497 -123.4 426.654C-138.506 418.853 -152.615 378.664 -169.105 340.299C-184.381 304.828 -203.052 275.227 -223.381 269.813C-243.368 264.509 -223.27 204.52 -205.865 203.07C-106.043 194.646 -189.056 181.335 -150.357 172.539C-94.851 159.813 -51.093 158.599 -20.463 177.394C50.9683 221.234 99.553 159.668 94.0454 275.775C92.9442 298.818 109.629 304.704 131.419 299.325C173.305 289.009 257.848 212.175 295.146 154.018C311.848 127.96 355.829 178.797 367.014 246.128C381.027 330.634 467.388 401.894 462.591 413.633Z" stroke="url(#paint18_linear)" stroke-width="3" stroke-miterlimit="10"/>
<path d="M460.773 411.464C451.369 435.901 417.047 464.662 348.618 480.977C321.656 487.379 297.339 492.938 277.047 495.991C201.615 507.318 161.566 496.333 139.268 475.212C121.264 458.157 108.754 500.727 83.2289 507.914C-20.7096 537.272 -50.0741 458.118 -114.958 424.342C-129.961 416.521 -144.296 376.092 -161.368 338.021C-177.226 302.665 -196.501 273.611 -218.437 270.152C-239.202 266.854 -218.787 205.769 -200.929 204.266C-105.006 196.292 -183.246 183.533 -145.486 175.208C-91.4129 163.157 -48.6073 162.166 -18.4694 180.454C51.0475 222.714 98.2819 165.119 93.4598 277.493C92.4832 299.906 108.442 306.079 129.181 301.513C169.024 292.74 252.371 217.959 290.665 162.133C308.372 136.303 352.455 184.414 362.577 249.071C375.532 332.006 465.118 400.136 460.773 411.464Z" stroke="url(#paint19_linear)" stroke-width="3" stroke-miterlimit="10"/>
<path d="M458.929 409.336C450.299 433.37 416.252 461.721 349.452 477.999C323.066 484.43 299.187 490.044 279.333 493.153C206.442 504.547 166.7 494.213 143.956 473.715C125.977 457.509 113.301 497.62 88.2289 504.218C-13.5542 531.156 -44.2666 454.726 -106.619 422.051C-121.512 414.244 -136.079 373.54 -153.734 335.762C-170.209 300.528 -190.101 271.953 -213.562 270.505C-235.153 269.15 -214.379 206.998 -196.062 205.475C-104.037 197.952 -177.463 185.771 -140.718 177.896C-88.1119 166.528 -46.2312 165.72 -16.6128 183.54C50.9554 224.227 96.8805 170.63 92.7372 279.239C91.9261 301.049 107.117 307.48 126.773 303.734C164.612 296.533 246.805 223.832 286.046 170.275C304.801 144.701 348.91 190.065 358.003 252.041C370.002 333.384 462.854 398.411 458.929 409.336Z" stroke="url(#paint20_linear)" stroke-width="3" stroke-miterlimit="10"/>
<path d="M457.111 407.168C449.256 430.799 415.443 458.712 350.321 475.014C324.51 481.473 301.103 487.136 281.688 490.301C211.33 501.728 171.936 492.073 148.712 472.204C130.792 456.841 117.91 494.464 93.3042 500.543C-6.32359 525.06 -38.3838 451.354 -98.1766 419.74C-112.967 411.912 -127.76 370.969 -146.004 333.45C-163.062 298.331 -183.653 270.179 -208.624 270.81C-231.123 271.344 -209.909 208.179 -191.1 206.63C-102.978 199.523 -171.591 187.921 -135.854 180.531C-84.7149 169.844 -43.7591 169.219 -14.6193 186.6C51.0345 225.707 95.6161 176.115 92.1858 280.95C91.4993 302.131 105.97 308.882 124.57 305.915C160.366 300.257 241.485 229.691 281.633 178.377C301.435 153.058 345.57 195.675 353.642 255.005C364.438 334.77 460.591 396.687 457.111 407.168Z" stroke="url(#paint21_linear)" stroke-width="3" stroke-miterlimit="10"/>
<path d="M455.266 405.04C448.193 428.303 414.648 455.771 351.163 472.07C325.926 478.558 302.965 484.311 283.981 487.497C216.123 498.963 177.111 489.981 153.399 470.707C135.533 456.152 122.463 491.391 98.3385 496.841C0.872803 518.972 -32.5487 447.921 -89.8098 417.408C-104.491 409.595 -119.543 368.417 -138.343 331.151C-156.024 296.12 -177.347 274.165 -203.728 271.088C-227.118 268.38 -205.487 209.298 -186.205 207.798C-101.989 201.107 -165.788 190.085 -131.059 183.178C-81.3864 173.173 -41.3488 172.766 -12.7353 189.645C50.9699 227.18 94.2421 181.586 91.4838 282.62C90.9218 303.171 104.632 310.215 122.217 308.054C155.968 303.94 236.097 235.564 277.069 186.437C297.96 161.402 342.046 201.251 349.122 257.893C358.881 336.19 458.327 394.962 455.266 405.04Z" stroke="url(#paint22_linear)" stroke-width="3" stroke-miterlimit="10"/>
<path d="M453.456 402.905C447.164 425.801 413.846 452.796 352.038 469.119C327.377 475.636 305.017 482.267 286.35 484.714C220.593 493.308 182.361 487.91 158.169 469.265C140.363 455.553 126.984 487.791 103.427 493.235C8.59201 515.166 -26.6248 444.577 -81.3816 415.207C-95.9601 407.373 -111.238 365.955 -130.62 328.982C-148.918 294.073 -170.542 272.036 -198.798 271.537C-223.589 271.1 -201.024 210.623 -181.284 209.103C-101.006 202.836 -159.958 192.385 -126.209 185.922C-78.01 176.565 -38.9248 176.381 -10.7623 192.781C50.9941 228.742 92.9503 187.111 90.8775 284.414C90.4401 304.334 103.424 311.665 119.959 310.317C151.666 307.747 230.805 241.561 272.567 194.628C294.552 169.91 338.583 206.957 344.665 260.912C353.324 337.61 456.098 393.231 453.456 402.905Z" stroke="url(#paint23_linear)" stroke-width="3" stroke-miterlimit="10"/>
<path d="M451.604 400.743C446.1 423.305 413.044 449.821 352.907 466.134C328.821 472.679 306.899 479.367 288.67 481.869C225.413 490.502 187.557 485.742 162.89 467.761C145.137 454.858 131.565 484.677 108.462 489.532C15.7543 509.084 -20.7555 441.136 -73.0147 412.875C-87.4905 405.021 -102.994 363.363 -122.959 326.683C-141.873 291.896 -163.977 269.775 -193.895 271.849C-220.019 273.67 -196.589 211.811 -176.389 210.271C-100.023 204.386 -154.155 194.549 -121.413 188.57C-74.6815 179.894 -36.5144 179.928 -8.87821 195.826C50.9295 230.215 91.6107 192.575 90.1824 286.118C89.8763 305.443 102.093 313.032 117.613 312.49C147.276 311.464 225.52 247.592 268.051 202.75C291.173 178.377 335.037 212.608 340.194 263.862C347.767 339.029 453.842 391.541 451.604 400.743Z" stroke="url(#paint24_linear)" stroke-width="3" stroke-miterlimit="10"/>
<path d="M449.794 398.609C449.159 421.311 412.276 446.84 353.783 463.183C330.272 469.757 308.83 476.528 291.032 479.052C230.309 487.718 192.862 483.589 167.653 466.285C149.981 454.149 136.296 482.139 113.537 485.858C22.5578 500.83 -14.8518 437.69 -64.5726 410.564C-78.9388 402.723 -94.7086 360.798 -115.229 324.37C-134.76 289.705 -158.484 262.992 -188.958 272.154C-215.499 280.147 -192.119 212.992 -171.426 211.426C-98.9643 205.957 -148.276 196.733 -116.549 191.204C-71.2844 183.211 -34.0765 183.434 -6.89133 198.852C50.9678 231.667 90.3396 198.026 89.5901 287.802C89.4428 306.49 100.898 314.372 115.335 314.65C142.926 315.209 220.309 253.644 263.569 210.865C287.834 186.872 331.533 218.286 335.757 266.805C342.142 340.463 453.166 390.286 449.794 398.609Z" stroke="url(#paint25_linear)" stroke-width="3" stroke-miterlimit="10"/>
<path d="M447.949 396.481C448.26 418.747 411.48 443.899 354.625 460.239C331.689 466.842 310.719 473.661 293.325 476.248C235.101 484.953 198.058 481.421 172.347 464.822C154.762 453.487 140.884 479.059 118.551 482.231C29.7336 494.817 -9.00324 434.325 -56.2197 408.342C-70.4832 400.481 -86.4718 358.349 -107.581 322.18C-127.729 287.637 -152.31 261.271 -184.069 272.575C-211.702 282.422 -187.698 214.289 -166.546 212.704C-97.9952 207.617 -142.487 199.006 -111.768 193.962C-67.9698 186.65 -31.68 187.091 -5.02122 202.007C50.8892 233.249 88.986 203.599 88.8742 289.581C88.8514 307.64 99.5461 315.815 112.967 316.899C138.508 318.967 215.01 259.784 258.985 219.001C284.434 195.414 327.885 223.958 331.217 269.768C336.523 341.931 450.937 388.555 447.949 396.481Z" stroke="url(#paint26_linear)" stroke-width="3" stroke-miterlimit="10"/>
<path d="M446.131 394.313C447.389 416.142 410.678 440.924 355.494 457.254C333.133 463.886 312.601 470.761 295.686 473.431C239.962 482.176 203.356 479.234 177.11 463.346C159.606 452.779 145.506 475.972 123.626 478.556C36.971 488.756 -3.06546 430.871 -47.8119 406.037C-61.9726 398.156 -78.221 355.791 -99.8791 319.909C-120.643 285.488 -146.156 259.449 -179.159 272.922C-207.947 284.671 -183.255 215.511 -161.645 213.907C-97.0054 209.202 -136.677 201.204 -106.931 196.637C-64.607 189.973 -29.2697 190.638 -3.06195 205.074C50.8723 234.784 87.7216 209.084 88.2886 291.3C88.3904 308.728 98.3175 317.162 110.73 319.086C134.186 322.671 209.888 265.925 254.537 227.109C281.177 203.963 324.34 229.609 326.814 272.705C330.904 343.398 448.708 386.824 446.131 394.313Z" stroke="url(#paint27_linear)" stroke-width="3" stroke-miterlimit="10"/>
<path d="M444.287 392.185C446.483 413.543 409.876 437.949 356.335 454.31C334.55 460.97 314.49 467.894 297.98 470.627C244.796 479.439 208.579 477.025 181.804 461.883C164.408 452.042 150.066 472.933 128.64 474.929C44.1537 482.777 2.77659 427.472 -39.4313 403.774C-53.4892 395.872 -69.9974 353.274 -92.1698 317.672C-113.55 283.372 -139.982 257.729 -174.208 273.295C-204.151 286.946 -178.779 216.726 -156.696 215.171C-95.9675 210.848 -130.819 203.464 -102.088 199.346C-61.2305 193.364 -26.8113 194.246 -1.12986 208.181C50.8625 236.353 86.4299 214.61 87.6413 293.066C87.9087 309.892 96.9998 318.598 108.431 321.321C129.768 326.43 204.685 272.189 250.028 235.265C277.866 212.595 320.671 235.355 322.35 275.689C325.217 344.88 446.506 385.051 444.287 392.185Z" stroke="url(#paint28_linear)" stroke-width="3" stroke-miterlimit="10"/>
<path d="M442.469 390.016C445.612 410.938 409.108 434.967 357.232 451.284C336.022 457.973 316.265 464.089 300.362 467.734C250.2 479.225 213.919 474.687 186.588 460.331C169.3 451.217 154.709 469.772 133.736 471.179C51.4529 476.668 8.7283 423.909 -31.0028 401.394C-44.958 393.473 -61.6848 350.668 -84.4535 315.29C-106.451 281.113 -133.808 255.831 -169.285 273.532C-200.416 289.092 -174.288 217.832 -151.781 216.264C-94.9706 212.289 -124.995 205.552 -97.2713 201.919C-57.8813 196.619 -24.4146 197.725 0.809091 211.145C50.8253 237.784 85.1453 219.991 87.0012 294.688C87.3931 310.884 95.7166 319.849 106.14 323.413C125.385 330.003 199.495 278.344 245.526 243.278C274.609 221.144 317.003 240.924 317.893 278.529C319.495 346.368 444.277 383.32 442.469 390.016Z" stroke="url(#paint29_linear)" stroke-width="3" stroke-miterlimit="10"/>
<path d="M440.624 387.889C444.713 408.374 408.279 432.034 358.073 448.34C337.438 455.058 318.12 461.23 302.662 464.964C255.021 476.419 219.176 472.472 191.289 458.903C174.109 450.515 159.276 466.767 138.75 467.552C58.6422 470.723 14.6045 420.503 -22.6499 399.172C-36.5022 391.23 -53.4889 348.192 -76.806 313.101C-99.4198 279.046 -127.73 254.165 -164.396 273.954C-196.715 291.422 -169.873 219.096 -146.866 217.535C-93.9671 213.942 -119.164 207.853 -92.4554 204.67C-54.5323 200.051 -22.018 201.382 2.71358 214.293C50.7537 239.401 83.867 225.586 86.3264 296.495C86.8771 312.054 94.3988 321.285 103.814 325.689C120.96 333.728 194.284 284.752 240.99 251.476C271.29 229.92 313.231 246.691 313.401 281.554C313.705 347.869 442.048 381.589 440.624 387.889Z" stroke="url(#paint30_linear)" stroke-width="3" stroke-miterlimit="10"/>
<path d="M438.814 385.754C443.842 405.769 407.518 429.086 358.949 445.389C338.889 452.135 320.043 458.357 305.024 462.147C259.896 473.532 224.489 470.175 196.052 457.426C178.98 449.765 163.899 463.68 143.832 463.912C65.9001 464.765 20.5423 417.049 -14.2009 396.895C-27.9505 388.933 -45.1902 345.696 -69.0625 310.857C-92.3204 276.965 -121.555 252.445 -159.445 274.327C-192.953 293.704 -165.397 220.311 -141.924 218.765C-92.943 215.52 -113.313 210.078 -87.5778 207.372C-51.1217 203.436 -19.5255 204.983 4.71397 217.387C50.7779 240.963 82.6437 231.098 85.7408 298.214C86.4229 313.177 93.1634 322.597 101.542 327.883C116.583 337.335 189.1 291.119 236.515 259.625C268.074 238.675 309.487 252.417 308.97 284.532C307.881 349.378 439.846 379.817 438.814 385.754Z" stroke="url(#paint31_linear)" stroke-width="3" stroke-miterlimit="10"/>
<path d="M436.962 383.592C442.936 403.171 406.715 426.111 359.783 442.411C340.299 449.186 321.885 455.428 307.344 459.302C264.737 470.651 229.787 467.809 200.773 455.922C183.769 448.96 168.486 460.601 148.9 460.202C73.11 458.745 26.5008 413.52 -5.79996 394.557C-19.4125 386.567 -36.9462 343.103 -61.367 308.551C-85.2415 274.781 -115.464 250.67 -154.508 274.632C-189.232 295.959 -160.934 221.458 -136.995 219.926C-91.9325 217.029 -107.476 212.235 -82.7549 209.979C-47.7726 206.69 -17.1219 208.496 6.62548 220.392C50.72 242.47 81.4 236.507 85.1073 299.87C85.9482 314.197 91.8734 323.814 99.2573 330.009C112.193 340.874 183.91 297.451 232.02 267.672C264.81 247.368 305.689 258.047 304.52 287.406C301.954 350.906 437.617 378.086 436.962 383.592Z" stroke="url(#paint32_linear)" stroke-width="3" stroke-miterlimit="10"/>
<path d="M435.152 381.458C442.071 400.6 405.92 423.171 360.659 439.46C341.75 446.264 323.808 452.555 309.671 456.491C269.571 467.736 235.086 465.443 205.495 454.418C188.592 448.148 173.068 457.486 153.941 456.534C80.3268 452.759 32.3908 410.004 2.5804 392.293C-10.9362 384.249 -28.7161 340.62 -53.6989 306.286C-78.1901 272.638 -109.365 248.93 -149.598 274.979C-185.545 298.221 -156.499 222.645 -132.094 221.129C-90.9495 218.58 -101.666 214.432 -77.9527 212.661C-44.403 210.047 -14.7391 212.084 8.55053 223.465C50.6689 244.011 80.1424 242.026 84.4532 301.602C85.4529 315.292 90.5969 325.099 96.9517 332.21C107.871 344.4 178.637 303.907 227.504 275.794C261.567 256.164 301.801 263.766 300.049 290.356C295.917 352.421 435.388 376.355 435.152 381.458Z" stroke="url(#paint33_linear)" stroke-width="3" stroke-miterlimit="10"/>
<path d="M433.307 379.33C441.207 398.029 405.125 420.23 361.535 436.51C343.201 443.342 325.69 449.655 312.04 453.708C274.453 464.883 240.419 463.07 210.264 452.976C193.456 447.364 177.703 454.468 159.023 452.894C87.557 446.842 38.3628 406.544 10.9949 390.023C-2.38461 381.952 -20.4586 338.096 -45.9899 304.049C-71.1319 270.53 -103.253 247.258 -144.682 275.359C-181.845 300.552 -152.022 223.861 -127.179 222.4C-89.953 220.199 -95.8425 216.699 -73.1369 215.412C-41.0542 213.48 -12.3702 215.782 10.4548 226.614C50.5696 245.669 78.8915 247.579 83.7783 303.409C84.9093 316.503 89.3407 326.487 94.6254 334.486C103.535 348.035 173.357 310.506 222.967 283.991C258.248 265.118 297.851 269.532 295.557 293.381C289.73 353.894 433.186 374.583 433.307 379.33Z" stroke="url(#paint34_linear)" stroke-width="3" stroke-miterlimit="10"/>
<path d="M431.49 377.162C437.224 396.609 404.364 417.283 362.404 433.525C344.645 440.385 327.566 446.72 314.36 450.863C279.239 461.907 245.697 460.602 214.986 451.473C198.265 446.484 182.291 451.389 164.058 449.192C94.7739 440.857 44.2804 402.988 19.3961 387.685C6.14683 379.552 -12.2076 335.538 -38.2942 301.743C-64.046 268.38 -97.1539 245.517 -139.744 275.664C-178.151 302.848 -147.566 224.973 -122.216 223.555C-88.8738 221.694 -89.9981 218.89 -68.2385 218.039C-37.6228 216.79 -9.89116 219.315 12.4418 229.639C50.594 247.231 77.7232 253.01 83.1793 305.059C84.4691 317.516 88.1879 327.677 92.3749 336.605C99.3441 351.5 168.091 316.997 218.506 292.031C255.045 273.942 293.902 275.121 291.14 296.249C283.364 355.368 430.238 372.994 431.49 377.162Z" stroke="url(#paint35_linear)" stroke-width="3" stroke-miterlimit="10"/>
<path d="M429.645 375.034C436.921 393.998 403.568 414.342 363.245 430.581C346.069 437.504 329.441 443.785 316.688 448.053C284.066 458.958 250.976 458.133 219.715 450.003C203.054 445.679 186.886 448.343 169.106 445.558C101.936 434.953 50.2457 399.493 27.7765 385.421C14.6575 377.227 -3.9774 333.055 -30.6192 299.512C-57.0219 266.278 -91.0758 243.851 -134.862 276.051C-174.485 305.185 -143.171 226.133 -117.343 224.798C-87.9182 223.286 -84.2156 221.129 -63.4637 220.762C-34.315 220.194 -7.52895 222.978 14.3394 232.753C50.4879 248.854 76.5067 258.556 82.4977 306.831C83.9531 318.686 86.9593 329.023 90.0076 338.854C95.0838 355.156 162.709 323.616 213.928 300.201C251.699 282.936 289.802 280.846 286.607 299.247C276.698 356.757 428.221 371.256 429.645 375.034Z" stroke="url(#paint36_linear)" stroke-width="3" stroke-miterlimit="10"/>
<path d="M427.827 372.865C436.79 391.176 402.821 411.463 364.114 427.596C347.554 434.575 331.31 440.815 319.008 445.208C288.853 455.981 256.241 455.596 224.436 448.499C207.863 444.798 191.44 445.27 174.14 441.856C109.125 429.008 56.1974 395.93 36.1501 383.124C23.1888 374.827 4.1842 330.586 -22.9511 297.248C-50.0254 264.217 -84.9977 242.186 -129.952 276.398C-170.826 307.487 -138.715 227.246 -112.442 226.001C-86.9419 224.802 -78.4056 223.327 -58.6681 223.41C-30.9932 223.49 -5.17351 226.607 16.2235 235.799C50.382 250.478 75.3041 263.993 81.8026 308.536C83.451 319.747 85.7582 330.329 87.661 341.027C90.8441 358.736 157.292 330.243 209.372 308.295C248.38 291.89 285.634 286.407 282.095 302.169C269.607 357.982 426.17 369.525 427.827 372.865Z" stroke="url(#paint37_linear)" stroke-width="3" stroke-miterlimit="10"/>
<path d="M425.982 370.738C436.741 388.23 402.018 408.488 364.949 424.617C348.964 431.626 333.145 437.853 321.335 442.397C293.639 453.004 261.471 453.066 229.165 447.029C212.639 443.925 196.041 442.259 179.181 438.188C116.287 423.105 62.1491 392.366 44.5579 380.82C31.7543 372.421 12.4692 328.021 -15.2214 294.935C-42.9123 262.027 -78.8649 240.439 -125.015 276.703C-167.098 309.777 -134.245 228.249 -107.513 227.162C-85.9315 226.311 -72.5682 225.483 -53.8385 226.051C-27.6305 226.813 -2.79068 230.196 18.176 238.831C50.3033 252.06 74.1699 269.416 81.2101 310.22C83.0173 320.794 84.6254 331.622 85.4171 343.181C86.7207 362.365 151.909 336.863 204.917 316.37C245.129 300.83 281.527 291.92 277.686 305.071C261.969 358.959 424.139 367.719 425.982 370.738Z" stroke="url(#paint38_linear)" stroke-width="3" stroke-miterlimit="10"/>
<path d="M52.9725 378.549C40.3884 370 20.7611 325.491 -7.51214 292.698C-35.7854 259.905 -72.7799 238.807 -120.064 277.077C-163.391 312.141 -129.782 229.218 -102.571 228.392C-14.1776 225.718 86.3925 233.134 83.1458 345.375C82.0859 381.941 282.701 283.462 273.256 308.049C253.483 359.427 422.102 365.879 424.172 368.603C442.3 392.222 361.053 424.177 323.697 439.58C238.622 474.678 80.391 397.125 52.9725 378.549Z" stroke="url(#paint39_linear)" stroke-width="3" stroke-miterlimit="10"/>
</g>
<defs>
<linearGradient id="paint0_linear" x1="408.076" y1="264.33" x2="-179.055" y2="591.785" gradientUnits="userSpaceOnUse">
<stop offset="0.116722" stop-color="white"/>
<stop offset="0.344845" stop-color="#FFDEB8"/>
<stop offset="0.609334" stop-color="#FFA53A"/>
<stop offset="0.823228" stop-color="#FF5107"/>
</linearGradient>
<linearGradient id="paint1_linear" x1="408.076" y1="264.33" x2="-179.055" y2="591.785" gradientUnits="userSpaceOnUse">
<stop offset="0.116722" stop-color="white"/>
<stop offset="0.344845" stop-color="#FFDEB8"/>
<stop offset="0.609334" stop-color="#FFA53A"/>
<stop offset="0.823228" stop-color="#FF5107"/>
</linearGradient>
<linearGradient id="paint2_linear" x1="408.076" y1="264.33" x2="-179.055" y2="591.785" gradientUnits="userSpaceOnUse">
<stop offset="0.116722" stop-color="white"/>
<stop offset="0.344845" stop-color="#FFDEB8"/>
<stop offset="0.609334" stop-color="#FFA53A"/>
<stop offset="0.823228" stop-color="#FF5107"/>
</linearGradient>
<linearGradient id="paint3_linear" x1="408.076" y1="264.33" x2="-179.055" y2="591.785" gradientUnits="userSpaceOnUse">
<stop offset="0.116722" stop-color="white"/>
<stop offset="0.344845" stop-color="#FFDEB8"/>
<stop offset="0.609334" stop-color="#FFA53A"/>
<stop offset="0.823228" stop-color="#FF5107"/>
</linearGradient>
<linearGradient id="paint4_linear" x1="408.076" y1="264.33" x2="-179.055" y2="591.785" gradientUnits="userSpaceOnUse">
<stop offset="0.116722" stop-color="white"/>
<stop offset="0.344845" stop-color="#FFDEB8"/>
<stop offset="0.609334" stop-color="#FFA53A"/>
<stop offset="0.823228" stop-color="#FF5107"/>
</linearGradient>
<linearGradient id="paint5_linear" x1="408.076" y1="264.33" x2="-179.055" y2="591.785" gradientUnits="userSpaceOnUse">
<stop offset="0.116722" stop-color="white"/>
<stop offset="0.344845" stop-color="#FFDEB8"/>
<stop offset="0.609334" stop-color="#FFA53A"/>
<stop offset="0.823228" stop-color="#FF5107"/>
</linearGradient>
<linearGradient id="paint6_linear" x1="408.076" y1="264.33" x2="-179.055" y2="591.785" gradientUnits="userSpaceOnUse">
<stop offset="0.116722" stop-color="white"/>
<stop offset="0.344845" stop-color="#FFDEB8"/>
<stop offset="0.609334" stop-color="#FFA53A"/>
<stop offset="0.823228" stop-color="#FF5107"/>
</linearGradient>
<linearGradient id="paint7_linear" x1="408.076" y1="264.33" x2="-179.055" y2="591.785" gradientUnits="userSpaceOnUse">
<stop offset="0.116722" stop-color="white"/>
<stop offset="0.344845" stop-color="#FFDEB8"/>
<stop offset="0.609334" stop-color="#FFA53A"/>
<stop offset="0.823228" stop-color="#FF5107"/>
</linearGradient>
<linearGradient id="paint8_linear" x1="408.076" y1="264.33" x2="-179.055" y2="591.785" gradientUnits="userSpaceOnUse">
<stop offset="0.116722" stop-color="white"/>
<stop offset="0.344845" stop-color="#FFDEB8"/>
<stop offset="0.609334" stop-color="#FFA53A"/>
<stop offset="0.823228" stop-color="#FF5107"/>
</linearGradient>
<linearGradient id="paint9_linear" x1="408.076" y1="264.33" x2="-179.055" y2="591.785" gradientUnits="userSpaceOnUse">
<stop offset="0.116722" stop-color="white"/>
<stop offset="0.344845" stop-color="#FFDEB8"/>
<stop offset="0.609334" stop-color="#FFA53A"/>
<stop offset="0.823228" stop-color="#FF5107"/>
</linearGradient>
<linearGradient id="paint10_linear" x1="408.076" y1="264.33" x2="-179.055" y2="591.785" gradientUnits="userSpaceOnUse">
<stop offset="0.116722" stop-color="white"/>
<stop offset="0.344845" stop-color="#FFDEB8"/>
<stop offset="0.609334" stop-color="#FFA53A"/>
<stop offset="0.823228" stop-color="#FF5107"/>
</linearGradient>
<linearGradient id="paint11_linear" x1="408.076" y1="264.33" x2="-179.055" y2="591.785" gradientUnits="userSpaceOnUse">
<stop offset="0.116722" stop-color="white"/>
<stop offset="0.344845" stop-color="#FFDEB8"/>
<stop offset="0.609334" stop-color="#FFA53A"/>
<stop offset="0.823228" stop-color="#FF5107"/>
</linearGradient>
<linearGradient id="paint12_linear" x1="408.076" y1="264.33" x2="-179.055" y2="591.785" gradientUnits="userSpaceOnUse">
<stop offset="0.116722" stop-color="white"/>
<stop offset="0.344845" stop-color="#FFDEB8"/>
<stop offset="0.609334" stop-color="#FFA53A"/>
<stop offset="0.823228" stop-color="#FF5107"/>
</linearGradient>
<linearGradient id="paint13_linear" x1="408.076" y1="264.33" x2="-179.055" y2="591.785" gradientUnits="userSpaceOnUse">
<stop offset="0.116722" stop-color="white"/>
<stop offset="0.344845" stop-color="#FFDEB8"/>
<stop offset="0.609334" stop-color="#FFA53A"/>
<stop offset="0.823228" stop-color="#FF5107"/>
</linearGradient>
<linearGradient id="paint14_linear" x1="408.076" y1="264.33" x2="-179.055" y2="591.785" gradientUnits="userSpaceOnUse">
<stop offset="0.116722" stop-color="white"/>
<stop offset="0.344845" stop-color="#FFDEB8"/>
<stop offset="0.609334" stop-color="#FFA53A"/>
<stop offset="0.823228" stop-color="#FF5107"/>
</linearGradient>
<linearGradient id="paint15_linear" x1="408.076" y1="264.33" x2="-179.055" y2="591.785" gradientUnits="userSpaceOnUse">
<stop offset="0.116722" stop-color="white"/>
<stop offset="0.344845" stop-color="#FFDEB8"/>
<stop offset="0.609334" stop-color="#FFA53A"/>
<stop offset="0.823228" stop-color="#FF5107"/>
</linearGradient>
<linearGradient id="paint16_linear" x1="408.076" y1="264.33" x2="-179.055" y2="591.785" gradientUnits="userSpaceOnUse">
<stop offset="0.116722" stop-color="white"/>
<stop offset="0.344845" stop-color="#FFDEB8"/>
<stop offset="0.609334" stop-color="#FFA53A"/>
<stop offset="0.823228" stop-color="#FF5107"/>
</linearGradient>
<linearGradient id="paint17_linear" x1="408.076" y1="264.33" x2="-179.055" y2="591.785" gradientUnits="userSpaceOnUse">
<stop offset="0.116722" stop-color="white"/>
<stop offset="0.344845" stop-color="#FFDEB8"/>
<stop offset="0.609334" stop-color="#FFA53A"/>
<stop offset="0.823228" stop-color="#FF5107"/>
</linearGradient>
<linearGradient id="paint18_linear" x1="408.076" y1="264.33" x2="-179.055" y2="591.785" gradientUnits="userSpaceOnUse">
<stop offset="0.116722" stop-color="white"/>
<stop offset="0.344845" stop-color="#FFDEB8"/>
<stop offset="0.609334" stop-color="#FFA53A"/>
<stop offset="0.823228" stop-color="#FF5107"/>
</linearGradient>
<linearGradient id="paint19_linear" x1="408.076" y1="264.33" x2="-179.055" y2="591.785" gradientUnits="userSpaceOnUse">
<stop offset="0.116722" stop-color="white"/>
<stop offset="0.344845" stop-color="#FFDEB8"/>
<stop offset="0.609334" stop-color="#FFA53A"/>
<stop offset="0.823228" stop-color="#FF5107"/>
</linearGradient>
<linearGradient id="paint20_linear" x1="408.076" y1="264.33" x2="-179.055" y2="591.785" gradientUnits="userSpaceOnUse">
<stop offset="0.116722" stop-color="white"/>
<stop offset="0.344845" stop-color="#FFDEB8"/>
<stop offset="0.609334" stop-color="#FFA53A"/>
<stop offset="0.823228" stop-color="#FF5107"/>
</linearGradient>
<linearGradient id="paint21_linear" x1="408.076" y1="264.33" x2="-179.055" y2="591.785" gradientUnits="userSpaceOnUse">
<stop offset="0.116722" stop-color="white"/>
<stop offset="0.344845" stop-color="#FFDEB8"/>
<stop offset="0.609334" stop-color="#FFA53A"/>
<stop offset="0.823228" stop-color="#FF5107"/>
</linearGradient>
<linearGradient id="paint22_linear" x1="408.076" y1="264.33" x2="-179.055" y2="591.785" gradientUnits="userSpaceOnUse">
<stop offset="0.116722" stop-color="white"/>
<stop offset="0.344845" stop-color="#FFDEB8"/>
<stop offset="0.609334" stop-color="#FFA53A"/>
<stop offset="0.823228" stop-color="#FF5107"/>
</linearGradient>
<linearGradient id="paint23_linear" x1="408.076" y1="264.33" x2="-179.055" y2="591.785" gradientUnits="userSpaceOnUse">
<stop offset="0.116722" stop-color="white"/>
<stop offset="0.344845" stop-color="#FFDEB8"/>
<stop offset="0.609334" stop-color="#FFA53A"/>
<stop offset="0.823228" stop-color="#FF5107"/>
</linearGradient>
<linearGradient id="paint24_linear" x1="408.076" y1="264.33" x2="-179.055" y2="591.785" gradientUnits="userSpaceOnUse">
<stop offset="0.116722" stop-color="white"/>
<stop offset="0.344845" stop-color="#FFDEB8"/>
<stop offset="0.609334" stop-color="#FFA53A"/>
<stop offset="0.823228" stop-color="#FF5107"/>
</linearGradient>
<linearGradient id="paint25_linear" x1="408.076" y1="264.33" x2="-179.055" y2="591.785" gradientUnits="userSpaceOnUse">
<stop offset="0.116722" stop-color="white"/>
<stop offset="0.344845" stop-color="#FFDEB8"/>
<stop offset="0.609334" stop-color="#FFA53A"/>
<stop offset="0.823228" stop-color="#FF5107"/>
</linearGradient>
<linearGradient id="paint26_linear" x1="408.076" y1="264.33" x2="-179.055" y2="591.785" gradientUnits="userSpaceOnUse">
<stop offset="0.116722" stop-color="white"/>
<stop offset="0.344845" stop-color="#FFDEB8"/>
<stop offset="0.609334" stop-color="#FFA53A"/>
<stop offset="0.823228" stop-color="#FF5107"/>
</linearGradient>
<linearGradient id="paint27_linear" x1="408.076" y1="264.33" x2="-179.055" y2="591.785" gradientUnits="userSpaceOnUse">
<stop offset="0.116722" stop-color="white"/>
<stop offset="0.344845" stop-color="#FFDEB8"/>
<stop offset="0.609334" stop-color="#FFA53A"/>
<stop offset="0.823228" stop-color="#FF5107"/>
</linearGradient>
<linearGradient id="paint28_linear" x1="408.076" y1="264.33" x2="-179.055" y2="591.785" gradientUnits="userSpaceOnUse">
<stop offset="0.116722" stop-color="white"/>
<stop offset="0.344845" stop-color="#FFDEB8"/>
<stop offset="0.609334" stop-color="#FFA53A"/>
<stop offset="0.823228" stop-color="#FF5107"/>
</linearGradient>
<linearGradient id="paint29_linear" x1="408.076" y1="264.33" x2="-179.055" y2="591.785" gradientUnits="userSpaceOnUse">
<stop offset="0.116722" stop-color="white"/>
<stop offset="0.344845" stop-color="#FFDEB8"/>
<stop offset="0.609334" stop-color="#FFA53A"/>
<stop offset="0.823228" stop-color="#FF5107"/>
</linearGradient>
<linearGradient id="paint30_linear" x1="408.076" y1="264.33" x2="-179.055" y2="591.785" gradientUnits="userSpaceOnUse">
<stop offset="0.116722" stop-color="white"/>
<stop offset="0.344845" stop-color="#FFDEB8"/>
<stop offset="0.609334" stop-color="#FFA53A"/>
<stop offset="0.823228" stop-color="#FF5107"/>
</linearGradient>
<linearGradient id="paint31_linear" x1="408.076" y1="264.33" x2="-179.055" y2="591.785" gradientUnits="userSpaceOnUse">
<stop offset="0.116722" stop-color="white"/>
<stop offset="0.344845" stop-color="#FFDEB8"/>
<stop offset="0.609334" stop-color="#FFA53A"/>
<stop offset="0.823228" stop-color="#FF5107"/>
</linearGradient>
<linearGradient id="paint32_linear" x1="408.076" y1="264.33" x2="-179.055" y2="591.785" gradientUnits="userSpaceOnUse">
<stop offset="0.116722" stop-color="white"/>
<stop offset="0.344845" stop-color="#FFDEB8"/>
<stop offset="0.609334" stop-color="#FFA53A"/>
<stop offset="0.823228" stop-color="#FF5107"/>
</linearGradient>
<linearGradient id="paint33_linear" x1="408.076" y1="264.33" x2="-179.055" y2="591.785" gradientUnits="userSpaceOnUse">
<stop offset="0.116722" stop-color="white"/>
<stop offset="0.344845" stop-color="#FFDEB8"/>
<stop offset="0.609334" stop-color="#FFA53A"/>
<stop offset="0.823228" stop-color="#FF5107"/>
</linearGradient>
<linearGradient id="paint34_linear" x1="408.076" y1="264.33" x2="-179.055" y2="591.785" gradientUnits="userSpaceOnUse">
<stop offset="0.116722" stop-color="white"/>
<stop offset="0.344845" stop-color="#FFDEB8"/>
<stop offset="0.609334" stop-color="#FFA53A"/>
<stop offset="0.823228" stop-color="#FF5107"/>
</linearGradient>
<linearGradient id="paint35_linear" x1="408.076" y1="264.33" x2="-179.055" y2="591.785" gradientUnits="userSpaceOnUse">
<stop offset="0.116722" stop-color="white"/>
<stop offset="0.344845" stop-color="#FFDEB8"/>
<stop offset="0.609334" stop-color="#FFA53A"/>
<stop offset="0.823228" stop-color="#FF5107"/>
</linearGradient>
<linearGradient id="paint36_linear" x1="408.076" y1="264.33" x2="-179.055" y2="591.785" gradientUnits="userSpaceOnUse">
<stop offset="0.116722" stop-color="white"/>
<stop offset="0.344845" stop-color="#FFDEB8"/>
<stop offset="0.609334" stop-color="#FFA53A"/>
<stop offset="0.823228" stop-color="#FF5107"/>
</linearGradient>
<linearGradient id="paint37_linear" x1="408.076" y1="264.33" x2="-179.055" y2="591.785" gradientUnits="userSpaceOnUse">
<stop offset="0.116722" stop-color="white"/>
<stop offset="0.344845" stop-color="#FFDEB8"/>
<stop offset="0.609334" stop-color="#FFA53A"/>
<stop offset="0.823228" stop-color="#FF5107"/>
</linearGradient>
<linearGradient id="paint38_linear" x1="408.076" y1="264.33" x2="-179.055" y2="591.785" gradientUnits="userSpaceOnUse">
<stop offset="0.116722" stop-color="white"/>
<stop offset="0.344845" stop-color="#FFDEB8"/>
<stop offset="0.609334" stop-color="#FFA53A"/>
<stop offset="0.823228" stop-color="#FF5107"/>
</linearGradient>
<linearGradient id="paint39_linear" x1="408.076" y1="264.33" x2="-179.055" y2="591.785" gradientUnits="userSpaceOnUse">
<stop offset="0.116722" stop-color="white"/>
<stop offset="0.344845" stop-color="#FFDEB8"/>
<stop offset="0.609334" stop-color="#FFA53A"/>
<stop offset="0.823228" stop-color="#FF5107"/>
</linearGradient>
</defs>
</svg>
