<svg xmlns="http://www.w3.org/2000/svg" xmlns:xlink="http://www.w3.org/1999/xlink" width="793" height="775" viewBox="0 0 793 775">
    <defs>
        <path id="qdw0hkgzca" d="M10.276 320.537c5.782 165.577 207.868 420.558 405.187 413.667 197.32-6.89 351.688-172.587 344.79-370.094-6.897-197.506-227.945-484.272-401.599-290.066-81.617 91.277-164.748 114.628-229.34 130.931l-12.137 3.052c-66.111 16.65-109.792 29.721-106.901 112.51z"/>
        <path id="6ygnpaxbcb" d="M0 0.148L45.276 0.148 45.276 135.879 0 135.879z"/>
        <path id="eod8k5lhvd" d="M0.352 0.129L98.187 0.129 98.187 98.803 0.352 98.803z"/>
        <path id="h6t2ib9mif" d="M0.034 0.691L35.36 0.691 35.36 41.849 0.034 41.849z"/>
        <path id="62vz2szpkh" d="M0.171 0.589L49.491 0.589 49.491 85.902 0.171 85.902z"/>
        <path id="ttqcig1buj" d="M0.705 0.126L53.162 0.126 53.162 37.444 0.705 37.444z"/>
        <path id="savceq772l" d="M0 0.796L207.831 0.796 207.831 120.818 0 120.818z"/>
        <path id="ejd7bk1iun" d="M.695 115.083l.472 165.237L200.36 165.313 199.892.08.695 115.083zm12.174 10.628L187.831 24.697l.37 129.969L13.239 255.68l-.37-129.97zm74.353 93.159l27.026-15.608.016 5.687-27.026 15.606-.016-5.685z"/>
        <path id="y4ixjf8llq" d="M0 0.264L9.103 0.264 9.103 170.519 0 170.519z"/>
        <path id="kfhj7wi9qs" d="M9.02 5.357c.88.172 1.693.478 2.427.905L2.81 1.242C2.077.817 1.266.511.388.337"/>
        <path id="x605twiztu" d="M9.02 5.357c.88.172 1.693.478 2.427.905L2.81 1.242C2.077.817 1.266.511.388.337"/>
        <path id="7taomrjnhw" d="M9.02 5.357c.88.172 1.693.478 2.427.905L2.81 1.242C2.077.817 1.266.511.388.337"/>
        <path id="6nh4ogkvfy" d="M9.02 5.357c.88.172 1.693.478 2.427.905L2.81 1.242C2.077.817 1.266.511.388.337"/>
        <path id="llzsto1kuA" d="M.638 1.832l-.264.154 8.632 5.02c.088-.053.176-.106.264-.154 3.584-2.07 6.751-2.188 9.81-.412l-8.634-5.018C9.021.596 7.574.18 6.072.18 4.349.18 2.552.728.638 1.832"/>
        <path id="n7mziqg75C" d="M.638 1.832l-.264.154 8.632 5.02c.088-.053.176-.106.264-.154 3.584-2.07 6.751-2.188 9.81-.412l-8.634-5.018C9.021.596 7.574.18 6.072.18 4.349.18 2.552.728.638 1.832"/>
        <path id="7f5g1pxcrE" d="M.638 1.832l-.264.154 8.632 5.02c.088-.053.176-.106.264-.154 3.584-2.07 6.751-2.188 9.81-.412l-8.634-5.018C9.021.596 7.574.18 6.072.18 4.349.18 2.552.728.638 1.832"/>
        <path id="jgvnt3yblG" d="M.638 1.832l-.264.154 8.632 5.02c.088-.053.176-.106.264-.154 3.584-2.07 6.751-2.188 9.81-.412l-8.634-5.018C9.021.596 7.574.18 6.072.18 4.349.18 2.552.728.638 1.832"/>
        <path id="zd03quhb0I" d="M.638 1.832l-.264.154 8.632 5.02c.088-.053.176-.106.264-.154 3.584-2.07 6.751-2.188 9.81-.412l-8.634-5.018C9.021.596 7.574.18 6.072.18 4.349.18 2.552.728.638 1.832"/>
        <path id="49hdjqi0hK" d="M.638 1.832l-.264.154 8.632 5.02c.088-.053.176-.106.264-.154 3.584-2.07 6.751-2.188 9.81-.412l-8.634-5.018C9.021.596 7.574.18 6.072.18 4.349.18 2.552.728.638 1.832"/>
        <path id="01qmh31nbM" d="M.638 1.832l-.264.154 8.632 5.02c.088-.053.176-.106.264-.154 3.584-2.07 6.751-2.188 9.81-.412l-8.634-5.018C9.021.596 7.574.18 6.072.18 4.349.18 2.552.728.638 1.832"/>
        <path id="aktni3x6nO" d="M.638 1.832l-.264.154 8.632 5.02c.088-.053.176-.106.264-.154 3.584-2.07 6.751-2.188 9.81-.412l-8.634-5.018C9.021.596 7.574.18 6.072.18 4.349.18 2.552.728.638 1.832"/>
        <path id="lqf4qpj1pQ" d="M.638 1.832l-.264.154 8.632 5.02c.088-.053.176-.106.264-.154 3.584-2.07 6.751-2.188 9.81-.412l-8.634-5.018C9.021.596 7.574.18 6.072.18 4.349.18 2.552.728.638 1.832"/>
        <path id="7jlsg8h81S" d="M.638 1.832l-.264.154 8.632 5.02c.088-.053.176-.106.264-.154 3.584-2.07 6.751-2.188 9.81-.412l-8.634-5.018C9.021.596 7.574.18 6.072.18 4.349.18 2.552.728.638 1.832"/>
        <path id="kmb90sk6dU" d="M.812 80.233c.013 2.412.868 4.113 2.244 4.914l8.635 5.018c-1.377-.8-2.232-2.502-2.245-4.912L9.222 5.446.585.43l.227 79.804z"/>
        <path id="e3fx4jn7gX" d="M2.912 3.143l8.634 5.015c-1.075-.625-2.007-1.517-2.751-2.674L.161.467c.746 1.156 1.676 2.048 2.75 2.676"/>
        <path id="l4d8pn276aa" d="M2.912 3.143l8.634 5.015c-1.075-.625-2.007-1.517-2.751-2.674L.161.467c.746 1.156 1.676 2.048 2.75 2.676"/>
        <path id="7z5iy8rezac" d="M3.462 28.331c.553.61 1.176 1.117 1.863 1.516l8.634 5.017c-.69-.398-1.31-.903-1.863-1.517-5.018-5.564-3.141-18.17 4.196-28.152L7.658.178C.323 10.158-1.558 22.765 3.462 28.33"/>
        <path id="0ods3027oae" d="M3.462 28.331c.553.61 1.176 1.117 1.863 1.516l8.634 5.017c-.69-.398-1.31-.903-1.863-1.517-5.018-5.564-3.141-18.17 4.196-28.152L7.658.178C.323 10.158-1.558 22.765 3.462 28.33"/>
        <path id="7ylm8gig3ag" d="M3.462 28.331c.553.61 1.176 1.117 1.863 1.516l8.634 5.017c-.69-.398-1.31-.903-1.863-1.517-5.018-5.564-3.141-18.17 4.196-28.152L7.658.178C.323 10.158-1.558 22.765 3.462 28.33"/>
        <path id="k2cid3ajcai" d="M3.462 28.331c.553.61 1.176 1.117 1.863 1.516l8.634 5.017c-.69-.398-1.31-.903-1.863-1.517-5.018-5.564-3.141-18.17 4.196-28.152L7.658.178C.323 10.158-1.558 22.765 3.462 28.33"/>
        <path id="jalwftg4mak" d="M3.462 28.331c.553.61 1.176 1.117 1.863 1.516l8.634 5.017c-.69-.398-1.31-.903-1.863-1.517-5.018-5.564-3.141-18.17 4.196-28.152L7.658.178C.323 10.158-1.558 22.765 3.462 28.33"/>
        <path id="6h66vleg7am" d="M3.462 28.331c.553.61 1.176 1.117 1.863 1.516l8.634 5.017c-.69-.398-1.31-.903-1.863-1.517-5.018-5.564-3.141-18.17 4.196-28.152L7.658.178C.323 10.158-1.558 22.765 3.462 28.33"/>
        <path id="dc6nmbwlwao" d="M3.462 28.331c.553.61 1.176 1.117 1.863 1.516l8.634 5.017c-.69-.398-1.31-.903-1.863-1.517-5.018-5.564-3.141-18.17 4.196-28.152L7.658.178C.323 10.158-1.558 22.765 3.462 28.33"/>
        <path id="b2gs5tn5maq" d="M3.462 28.331c.553.61 1.176 1.117 1.863 1.516l8.634 5.017c-.69-.398-1.31-.903-1.863-1.517-5.018-5.564-3.141-18.17 4.196-28.152L7.658.178C.323 10.158-1.558 22.765 3.462 28.33"/>
        <path id="0t5gguxp4as" d="M3.462 28.331c.553.61 1.176 1.117 1.863 1.516l8.634 5.017c-.69-.398-1.31-.903-1.863-1.517-5.018-5.564-3.141-18.17 4.196-28.152L7.658.178C.323 10.158-1.558 22.765 3.462 28.33"/>
        <path id="x8ey422q4au" d="M3.462 28.331c.553.61 1.176 1.117 1.863 1.516l8.634 5.017c-.69-.398-1.31-.903-1.863-1.517-5.018-5.564-3.141-18.17 4.196-28.152L7.658.178C.323 10.158-1.558 22.765 3.462 28.33"/>
        <path id="sn2d4b753aw" d="M3.462 28.331c.553.61 1.176 1.117 1.863 1.516l8.634 5.017c-.69-.398-1.31-.903-1.863-1.517-5.018-5.564-3.141-18.17 4.196-28.152L7.658.178C.323 10.158-1.558 22.765 3.462 28.33"/>
        <path id="omrstel6yay" d="M3.462 28.331c.553.61 1.176 1.117 1.863 1.516l8.634 5.017c-.69-.398-1.31-.903-1.863-1.517-5.018-5.564-3.141-18.17 4.196-28.152L7.658.178C.323 10.158-1.558 22.765 3.462 28.33"/>
        <path id="u0y1fjdb8aA" d="M2.242 15.054C.163 19.24-.597 27.135 2.38 31.014l8.634 5.018c-2.978-3.877-2.216-11.775-.137-15.96 3.13-6.3 6.789-11.597 11.765-14.467L14.006.585C9.031 3.457 5.374 8.752 2.242 15.055"/>
        <path id="v6jdcgel7aC" d="M2.242 15.054C.163 19.24-.597 27.135 2.38 31.014l8.634 5.018c-2.978-3.877-2.216-11.775-.137-15.96 3.13-6.3 6.789-11.597 11.765-14.467L14.006.585C9.031 3.457 5.374 8.752 2.242 15.055"/>
        <path id="26dm0pc9raE" d="M2.242 15.054C.163 19.24-.597 27.135 2.38 31.014l8.634 5.018c-2.978-3.877-2.216-11.775-.137-15.96 3.13-6.3 6.789-11.597 11.765-14.467L14.006.585C9.031 3.457 5.374 8.752 2.242 15.055"/>
        <path id="xo8v9hplpaG" d="M2.242 15.054C.163 19.24-.597 27.135 2.38 31.014l8.634 5.018c-2.978-3.877-2.216-11.775-.137-15.96 3.13-6.3 6.789-11.597 11.765-14.467L14.006.585C9.031 3.457 5.374 8.752 2.242 15.055"/>
        <path id="k1wpzuap4aI" d="M2.242 15.054C.163 19.24-.597 27.135 2.38 31.014l8.634 5.018c-2.978-3.877-2.216-11.775-.137-15.96 3.13-6.3 6.789-11.597 11.765-14.467L14.006.585C9.031 3.457 5.374 8.752 2.242 15.055"/>
        <path id="ormo6nbgvaK" d="M2.242 15.054C.163 19.24-.597 27.135 2.38 31.014l8.634 5.018c-2.978-3.877-2.216-11.775-.137-15.96 3.13-6.3 6.789-11.597 11.765-14.467L14.006.585C9.031 3.457 5.374 8.752 2.242 15.055"/>
        <path id="be64j7bxdaM" d="M2.242 15.054C.163 19.24-.597 27.135 2.38 31.014l8.634 5.018c-2.978-3.877-2.216-11.775-.137-15.96 3.13-6.3 6.789-11.597 11.765-14.467L14.006.585C9.031 3.457 5.374 8.752 2.242 15.055"/>
        <path id="9uyyhcglgaO" d="M2.242 15.054C.163 19.24-.597 27.135 2.38 31.014l8.634 5.018c-2.978-3.877-2.216-11.775-.137-15.96 3.13-6.3 6.789-11.597 11.765-14.467L14.006.585C9.031 3.457 5.374 8.752 2.242 15.055"/>
        <path id="1tuvawsb5aQ" d="M2.242 15.054C.163 19.24-.597 27.135 2.38 31.014l8.634 5.018c-2.978-3.877-2.216-11.775-.137-15.96 3.13-6.3 6.789-11.597 11.765-14.467L14.006.585C9.031 3.457 5.374 8.752 2.242 15.055"/>
        <path id="569usvhkaaS" d="M2.242 15.054C.163 19.24-.597 27.135 2.38 31.014l8.634 5.018c-2.978-3.877-2.216-11.775-.137-15.96 3.13-6.3 6.789-11.597 11.765-14.467L14.006.585C9.031 3.457 5.374 8.752 2.242 15.055"/>
        <path id="p86ms5nhwaU" d="M2.242 15.054C.163 19.24-.597 27.135 2.38 31.014l8.634 5.018c-2.978-3.877-2.216-11.775-.137-15.96 3.13-6.3 6.789-11.597 11.765-14.467L14.006.585C9.031 3.457 5.374 8.752 2.242 15.055"/>
        <path id="okz4vvnj1aW" d="M2.242 15.054C.163 19.24-.597 27.135 2.38 31.014l8.634 5.018c-2.978-3.877-2.216-11.775-.137-15.96 3.13-6.3 6.789-11.597 11.765-14.467L14.006.585C9.031 3.457 5.374 8.752 2.242 15.055"/>
        <path id="fp2t5npsnaY" d="M2.242 15.054C.163 19.24-.597 27.135 2.38 31.014l8.634 5.018c-2.978-3.877-2.216-11.775-.137-15.96 3.13-6.3 6.789-11.597 11.765-14.467L14.006.585C9.031 3.457 5.374 8.752 2.242 15.055"/>
        <path id="3i5mo37lbba" d="M2.242 15.054C.163 19.24-.597 27.135 2.38 31.014l8.634 5.018c-2.978-3.877-2.216-11.775-.137-15.96 3.13-6.3 6.789-11.597 11.765-14.467L14.006.585C9.031 3.457 5.374 8.752 2.242 15.055"/>
        <path id="8yrra1c3pbc" d="M2.242 15.054C.163 19.24-.597 27.135 2.38 31.014l8.634 5.018c-2.978-3.877-2.216-11.775-.137-15.96 3.13-6.3 6.789-11.597 11.765-14.467L14.006.585C9.031 3.457 5.374 8.752 2.242 15.055"/>
        <path id="1elb2sq53be" d="M8.006 2.379C3.792 4.848.396 10.744.41 15.583l.225 79.81c.024 4.832 3.434 6.812 7.656 4.4 5.92-3.431 11.352-10.31 14.284-18.006 6.418-3.707 11.52-13.15 12.4-16.022 1.875-5.867 1.593-11.257-.766-14.41 4.414-5.981 7.035-13.246 7.005-19.36-.005-6.132-2.66-10.348-7.093-11.22 3.101-7.656 1.916-14.484.055-16.07-3.652-3.086-7.368-3.425-11.691-.93-.088.049-.177.102-.265.154C20.61 1.443 18.151.174 15.235.174c-2.205 0-4.674.727-7.23 2.205"/>
        <path id="h0ft2tdmfbh" d="M33.408 1.13C27.475 4.568 22.043 11.447 19.11 19.15c-4.976 2.87-8.634 8.167-11.764 14.466-2.08 4.185-2.841 12.084.137 15.96-7.337 9.982-9.214 22.588-4.196 28.152 1.145 1.27 2.603 2.085 4.281 2.427-2.332 5.861-2.585 11.566-.671 15.242.797 1.647 5.744 5.544 12.347 1.733l.236-.136c2.822 4.376 8.284 4.978 14.218 1.553 4.211-2.472 7.597-8.361 7.594-13.207l-.226-79.81C41.047 2.098 39.314.107 36.8.107c-1.022 0-2.174.33-3.392 1.024"/>
        <linearGradient id="ffkyqn1q2o" x1="50.001%" x2="50.001%" y1="100%" y2="0%">
            <stop offset="0%" stop-color="#F49C00"/>
            <stop offset="100%" stop-color="#BA7404"/>
        </linearGradient>
        <linearGradient id="lzgs04g1qV" x1=".009%" x2="99.991%" y1="49.999%" y2="49.999%">
            <stop offset="0%" stop-color="#489EAA"/>
            <stop offset="100%" stop-color="#2A8389"/>
        </linearGradient>
        <linearGradient id="b1ebxkinxY" x1="-.002%" x2="99.994%" y1="50.005%" y2="50.005%">
            <stop offset="0%" stop-color="#489EAA"/>
            <stop offset="100%" stop-color="#2A8389"/>
        </linearGradient>
        <linearGradient id="bu1dpkz74bf" x1="49.999%" x2="49.999%" y1="100%" y2="0%">
            <stop offset="0%" stop-color="#70C8DA"/>
            <stop offset="100%" stop-color="#489EAA"/>
        </linearGradient>
        <linearGradient id="2qwnduxm9bi" x1="49.999%" x2="49.999%" y1="100%" y2="0%">
            <stop offset="0%" stop-color="#70C8DA"/>
            <stop offset="100%" stop-color="#489EAA"/>
        </linearGradient>
    </defs>
    <g fill="none" fill-rule="evenodd">
        <g>
            <g>
                <path fill="#73C8DA" fill-rule="nonzero" d="M183.985 751.687c164.252 66.362 501.227-20.193 580.33-215.983 79.105-195.789-15.598-418.679-211.524-497.838-195.926-79.16-572.198 12.1-458.036 266.232 53.656 119.443 40.303 210.822 28.13 281.023l-2.299 13.185c-12.494 71.836-18.727 120.2 63.399 153.38z" transform="translate(-998 -100) translate(998 100.832)"/>
                <g transform="translate(-998 -100) translate(998 100.832)">
                    <use fill="#F6F8F9" fill-rule="nonzero" xlink:href="#qdw0hkgzca"/>
                </g>
                <g>
                    <g>
                        <path fill="#1A2228" d="M105.362 35.996C92.805 27.943 78.164 20.53 76.369 21.428l-.789.392.01-.003c-.12.06-.186.152-.193.282-.002.117.06.265.144.399.13.218.295.39.469.502.055.033.11.064.167.086 1.317.542 6.718 1.59 14.498 6.582 1.727 1.107 13.74 11.797 13.74 11.797l.788-.392.159-5.077z" transform="translate(-998 -100) translate(998 100.832) matrix(-1 0 0 1 585 120.168) translate(126.574)"/>
                        <path fill="#707B82" d="M77.962 82.461c3.707 9.073 22.159-3.295 19.932 3.295-4.17 12.344-3.205 23.608-2.736 30.233 1.322 18.588-2.088 60.957-2.088 60.957.009 1.48.271 2.945.749 4.341l2.848 10.062c2.357 6.804 12.403 9.172 19.552 7.438l.212-.06c5.544-1.34 10.956-6.964 11.942-12.473 0 0 3.97-1.927 3.21-14.438-1.218-19.975-2.342-43.953-3.88-58.536-7.131-67.613-49.74-30.819-49.74-30.819" transform="translate(-998 -100) translate(998 100.832) matrix(-1 0 0 1 585 120.168) translate(126.574)"/>
                        <path fill="#707B82" d="M95.93 171.105c-2.473 5.762-2.634 6.08-2.272 11.724.51 8.104 3.898 19.687 3.898 19.687l12.973 52.781c.348 1.258 1.505 7.568 2.846 8.046 7.295 2.644 17.692-3.059 19.716-9.213 0 0 3.995-56.514-2.386-76.547-5.478-17.22-31.724-13.529-34.774-6.478" transform="translate(-998 -100) translate(998 100.832) matrix(-1 0 0 1 585 120.168) translate(126.574)"/>
                        <path fill="#CDE9F5" d="M92.182 73.205s34.512-15.164 32.206 97.274c0 0-.777 67.124 4.56 83.084 5.561 16.612 2.352 11.401-.853 6.692-2.859-4.203-6.097 20.345-59.638 28.262-17.156 2.528-21.021 21.83-42.27 15.816 0 0-6.185-5.37-6.185-11.017 0-11.643 19.507-59.078 14.341-92.245-4.713-30.226-23.36-65.058-18.371-84.148 0 0 29.131-35.953 76.21-43.718" transform="translate(-998 -100) translate(998 100.832) matrix(-1 0 0 1 585 120.168) translate(126.574)"/>
                        <path fill="#576066" d="M69.832 79.288s41.063 3.428 46.376 81.155c4.541 66.45 4.896 122.075 4.896 132.73 0 0 9.942-4.36 13.687-8.106 3.744-3.743-13.982-51.418-9.432-120.245 0 0 17.262-131.14-55.527-85.534" transform="translate(-998 -100) translate(998 100.832) matrix(-1 0 0 1 585 120.168) translate(126.574)"/>
                        <path fill="#707B82" d="M76.307 67.458s38.04-13.004 44.797 65.41l-5.771 7.023 8.277 3.343s-2.079 50.418-3.081 104.113c0 0-5.894-77.823-16.925-128.604 0 0-4.282-36.964-27.297-51.285" transform="translate(-998 -100) translate(998 100.832) matrix(-1 0 0 1 585 120.168) translate(126.574)"/>
                        <path fill="#576066" d="M57.657 81.992s1.617-.343-.183.837c-8.25 5.425-7.295 28.506 11.39 55.151 0 0 37.898 105.496 8.491 179.655 0 0-36.96 9.848-58.783-19.367-4.663-6.236 12.359-37.643 13.93-70.312 1.574-32.666-6.012-50-22.595-98.34 0 0-2.179-20.55 26.228-35.593 17.672-9.36 21.522-12.03 21.522-12.03" transform="translate(-998 -100) translate(998 100.832) matrix(-1 0 0 1 585 120.168) translate(126.574)"/>
                        <path fill="#E9F8FD" d="M81.221 94.078l18.738 6.21s2.198-25.377-23.024-25.377l4.286 19.167z" transform="translate(-998 -100) translate(998 100.832) matrix(-1 0 0 1 585 120.168) translate(126.574)"/>
                        <path fill="#F59C00" d="M97.839 99.587L93.658 116.95 79.321 109.4 82.484 94.094z" transform="translate(-998 -100) translate(998 100.832) matrix(-1 0 0 1 585 120.168) translate(126.574)"/>
                        <path fill="#F59C00" d="M92.71 110.615s17.918 11.526 14.5 123.033c0 0-28.474-116.32-14.5-123.033" transform="translate(-998 -100) translate(998 100.832) matrix(-1 0 0 1 585 120.168) translate(126.574)"/>
                        <path fill="#707B82" d="M59.033 78.413c-29.625 9.185-17.617 18.7 6.38 86.756h8.047l-4.597 10.088s19.81 50.12 19.486 86.633c0 0 8.196-69.213-15.396-125.855 0 0-23.244-34.554-13.92-57.622" transform="translate(-998 -100) translate(998 100.832) matrix(-1 0 0 1 585 120.168) translate(126.574)"/>
                        <path fill="#CAD9E0" d="M87.622 75.408s-5.976 12.608-5.137 18.685c0 0-17.72 11.226-33.281-16.55 0 0 7.517-6.417-2.102-31.436l40.52 29.301z" transform="translate(-998 -100) translate(998 100.832) matrix(-1 0 0 1 585 120.168) translate(126.574)"/>
                        <path fill="#E9F8FD" d="M82.485 94.094l-2.612 17.299s-19.914 1.31-30.758-15.852c0 0-6.867-10.667.782-18.79 0 0 7.958 16.57 32.588 17.343" transform="translate(-998 -100) translate(998 100.832) matrix(-1 0 0 1 585 120.168) translate(126.574)"/>
                        <path fill="#CAD9E0" d="M97.959 31.49c.057 2.871-3.317 3.521 1.762 14.929 3.13 7.048 1.952 7.222-.324 19.799-1.28 7.123-4.484 22.257-26.755 11.033 0 0-21.894-15.672-28.473-29.359-6.583-13.691-6.268-27.422 4.65-38.781 0 0 48.314-19.414 49.14 22.378" transform="translate(-998 -100) translate(998 100.832) matrix(-1 0 0 1 585 120.168) translate(126.574)"/>
                        <path fill="#707B82" d="M96.347 17.48c.557 7.769-16.718 12.711-28.165 15.114-4.301.906-7.242 4.562-3.055 16.731 4.19 12.176-2.998 13.97-3.528 11.782-2.423-9.918-13.203-17.484-10.205-1.458 0 0-24.154-22.359-16.848-40.418C39.335 7.405 53.671-5.592 82.111 2.535c4.945 1.41 13.595 6.146 14.236 14.945" transform="translate(-998 -100) translate(998 100.832) matrix(-1 0 0 1 585 120.168) translate(126.574)"/>
                        <path fill="#707B82" d="M65.127 49.325c4.189 12.82-3.322 12.82-3.322 12.82-2.381-11.696-13.608-15.897-10.412-2.496 0 0-24.153-22.359-16.847-40.418 2.171-5.352 6.319-10.936 12.828-14.698-14.12 26.438 11.402 24.33 18.015 29.02-2.553 1.843-3.306 6.457-.262 15.772" transform="translate(-998 -100) translate(998 100.832) matrix(-1 0 0 1 585 120.168) translate(126.574)"/>
                        <g transform="translate(-998 -100) translate(998 100.832) matrix(-1 0 0 1 585 120.168) translate(126.574) translate(0 101.67)">
                            <mask id="hw2qnmrgmc" fill="#fff">
                                <use xlink:href="#6ygnpaxbcb"/>
                            </mask>
                            <path fill="#707B82" d="M22.663.328C12.295 2.26 10.518 9.134 8.058 16.024c-4.615 12.918-4.047 24.8-3.8 31.784.66 19.596-4.253 64.137-4.253 64.137-.042 1.56.172 3.108.599 4.595l2.502 10.64c2.119 7.212 12.103 9.897 19.324 8.214l.224-.05c5.6-1.311 11.214-7.121 12.407-12.903 0 0-.544-7.804 1.522-20.848 3.333-20.984 7.313-51.768 8.518-67.28C47.083 8.72 31.72-1.362 22.663.327" mask="url(#hw2qnmrgmc)"/>
                        </g>
                        <path fill="#CAD9E0" d="M15.571 285.666c9.482 7.8 7.529 26.687 8.377 29.207 1.557 4.59 11.95 9.658 18.605 9.216 1.275.308 5.769-1.042 6.749-3l-6.903-3.987c-3.505-1.15-1.972-6.89-2.529-9.833-.535-2.874.806-4.722 2.679-2.517 1.748 2.064 2.46 5.114 4.044 6.17 1.482.988 4.801-.831 3.145-5.54-2.71-6.33-1.218-8.359-8.954-13.687-2.535-1.745-4.326-2.101-6.528-10.211l-18.685 4.182z" transform="translate(-998 -100) translate(998 100.832) matrix(-1 0 0 1 585 120.168) translate(126.574)"/>
                        <path fill="#707B82" d="M3.085 207.521C.4 213.54.23 213.871.39 219.823c.22 8.535 3.21 20.805 3.21 20.805l11.14 55.828c.308 1.328 1.238 7.997 2.56 8.53 7.224 2.928 25.497-6.196 27.741-12.636 0 0-4.191-59.506-9.876-80.728-4.88-18.237-28.777-11.466-32.081-4.1" transform="translate(-998 -100) translate(998 100.832) matrix(-1 0 0 1 585 120.168) translate(126.574)"/>
                        <path fill="#575759" d="M88.204 44.402l-1 5.867.355.227c.507-.65 1.018-6.224 1.018-6.224l-.373.13z" transform="translate(-998 -100) translate(998 100.832) matrix(-1 0 0 1 585 120.168) translate(126.574)"/>
                        <path fill="#1A2228" d="M51.78 38.465s-1.319.28-.827 1.068c1.063 1.72 2.863-.438 10.643 4.553 1.726 1.108 13.74 11.797 13.74 11.797l.788-.394.159-5.073c-12.558-8.055-21.89-12.392-24.502-11.951" transform="translate(-998 -100) translate(998 100.832) matrix(-1 0 0 1 585 120.168) translate(126.574)"/>
                        <path fill="#2B8389" d="M88.28 44.098l-13.436 6.659-.128 4.348c-.002.099.035.165.042.255l-.042 1.458c-.02.663.205 1.15.584 1.397l.324.209c-.012-.009-.016-.029-.03-.037h.005c.15.108.326.163.52.185.042.006.082.01.126.01.204.007.425-.015.667-.105l7.951-2.947c.102-.038.203-.082.304-.132.276-.137.549-.32.81-.553.604-.54 1.107-1.28 1.395-2.057.097-.258.17-.522.214-.782l1.015-5.987-.262-.167.262-1.544-.321-.21zM105.67 35.847l-.322-.21L91.91 42.3l.218 1.605-.218.108.691 5.139c.07.52.298.896.628 1.11l.321.21c-.02-.014-.03-.04-.05-.056.033.027.077.035.11.057.062.033.123.066.19.093.184.073.385.119.614.101.253-.022.524-.11.8-.246.1-.051.204-.11.308-.172l8.008-4.963c1.11-.69 1.978-2.14 2.014-3.379l.125-4.345-.048-.031.048-1.683z" transform="translate(-998 -100) translate(998 100.832) matrix(-1 0 0 1 585 120.168) translate(126.574)"/>
                        <path fill="#1A2228" d="M105.99 35.959l.034-1.062-.714-.458-30.63 15.152-.032 1.066.709.456 13.132-6.496c-.104.714-.412 2.8-.93 5.88 0 0 .401-.098.531-.305.172-.273.793-3.671.914-4.352.177-.976 1.436-1.958 2.317-1.482.159.085.302.193.412.449.262.595.306 2.392.518 3.006 0 0 .088.097.282.172.165.062.436-.13.436-.13s-.293-2.154-.69-5.114l13.712-6.782z" transform="translate(-998 -100) translate(998 100.832) matrix(-1 0 0 1 585 120.168) translate(126.574)"/>
                    </g>
                    <g>
                        <path fill="#707B82" d="M104.269 244.998s9.603-72.307-12.399-91.553c0 0-12.46-13.881-10.634 4.709 1.562 15.775 7.363 66.85 10.002 78.313 2.65 11.45 7.835 10.057 13.03 8.53" transform="translate(-998 -100) translate(998 100.832) matrix(-1 0 0 1 585 120.168) translate(0 100.117)"/>
                        <path fill="#707B82" d="M83.18 70.199s-25.77 2.72-5.508 60.036c0 0-.117 44.955 10.262 49.982 10.392 5.032 9.977 3.218 12.755-8.051 6.167-25.033 11.264-102.542-17.509-101.967" transform="translate(-998 -100) translate(998 100.832) matrix(-1 0 0 1 585 120.168) translate(0 100.117)"/>
                        <path fill="#576066" d="M106 123.879s5.251 15.779-8.51 38.922c0 0-.11 80.401 4.63 90.663 0 0-49.17 43.458-73.45 16.542 0 0 10.217-72.483-.175-94.831 0 0-6.152-11.275-6.152-16.185L106 123.88z" transform="translate(-998 -100) translate(998 100.832) matrix(-1 0 0 1 585 120.168) translate(0 100.117)"/>
                        <path fill="#576066" d="M105.757 142.665s-9.665 24.925-6.857 54.041l-12.277-2.418s-5.74-24.273-5.74-27.423c0-3.143 24.874-24.2 24.874-24.2" transform="translate(-998 -100) translate(998 100.832) matrix(-1 0 0 1 585 120.168) translate(0 100.117)"/>
                        <g transform="translate(-998 -100) translate(998 100.832) matrix(-1 0 0 1 585 120.168) translate(0 100.117) translate(10.14 69.913)">
                            <mask id="yf8pta1b2e" fill="#fff">
                                <use xlink:href="#eod8k5lhvd"/>
                            </mask>
                            <path fill="#576066" d="M58.885 94.942s-13.81 11.229-47.836-4.61c0 0-15.378-22.51-9.257-45.394 0 0 33.466-40.787 75.76-44.81 0 0 4.551 3.192 4.551 14.17 0 0 2.782 18.099 6.991 22.297 9.381 9.385 13.753 29.62 1.96 36.158L58.885 94.942z" mask="url(#yf8pta1b2e)"/>
                        </g>
                        <path fill="#576066" d="M3.272 125.053s7.217-39.444 79.908-54.854c0 0 9.063 10.95 9.063 22.02 0 11.06 2.401 19.041 6.384 23.453 1.96 2.172 4.006 5.385 5.546 8.974L22.342 158.99c0 1.931 15.59 10.988 16.303 14.323-.817-.343.82.38 0 0 0 0-41.503-25.376-35.373-48.261" transform="translate(-998 -100) translate(998 100.832) matrix(-1 0 0 1 585 120.168) translate(0 100.117)"/>
                        <path fill="#71C8DA" d="M76.366 116.989c0 3.57-2.892 6.465-6.464 6.465-3.57 0-6.463-2.895-6.463-6.465 0-3.568 2.892-6.465 6.463-6.465 3.572 0 6.464 2.897 6.464 6.465" transform="translate(-998 -100) translate(998 100.832) matrix(-1 0 0 1 585 120.168) translate(0 100.117)"/>
                        <path fill="#71C8DA" d="M65.57 159.922c-5.385-16.125-1.35-36.88 2.161-43.102 3.513-6.225 3.742 2.057 3.742 2.057s4.419 7.586-5.903 41.045" transform="translate(-998 -100) translate(998 100.832) matrix(-1 0 0 1 585 120.168) translate(0 100.117)"/>
                        <path fill="#71C8DA" d="M88.943 154.567c-13.19-10.723-20.912-30.41-21.282-37.544-.37-7.136 4.26-.27 4.26-.27s7.797 4.037 17.022 37.814" transform="translate(-998 -100) translate(998 100.832) matrix(-1 0 0 1 585 120.168) translate(0 100.117)"/>
                        <path fill="#CAD9E0" d="M69.141 110.525s6.101-6.658 5.786-11.337c-.414-6.187-7.145-14.664-5.786-25.501 0 0-20.202.645-26.632-5.654V95.58s10.771 14.944 26.632 14.944" transform="translate(-998 -100) translate(998 100.832) matrix(-1 0 0 1 585 120.168) translate(0 100.117)"/>
                        <path fill="#F7FCFC" d="M67.616 73.453c13.328 21.213-.998 37.002-.998 37.002l17.046 5.33s4.76-20.29-7.691-39.334c-.925-1.414-5.69-2.723-8.357-2.998M36.412 83.604c7.638 13.805 30.206 26.85 30.206 26.85l-5.564 18.596S19.51 102.753 34.691 85.874c1.168-1.295 0 0 1.72-2.27" transform="translate(-998 -100) translate(998 100.832) matrix(-1 0 0 1 585 120.168) translate(0 100.117)"/>
                        <path fill="#707B82" d="M87.04 36.566s9.336 38.596-13.793 56.473L67.68 77.116s9.226-38.706 6.323-48.244c0 0 7.59-10.577 13.035 7.694" transform="translate(-998 -100) translate(998 100.832) matrix(-1 0 0 1 585 120.168) translate(0 100.117)"/>
                        <path fill="#CAD9E0" d="M75.194 27.242s2.883 1.89 2.883 13.733c0 0 2.866 2.32 4.163 15.077 0 0-1.225 20.09-9.225 20.09 0 0-28.233 2.797-34.633-7.434 0 0-11.529-16.962-11.529-27.462 0-10.504 2.401-18.716 8.641-23.967 6.24-5.246 30.973-10.766 39.7 9.963" transform="translate(-998 -100) translate(998 100.832) matrix(-1 0 0 1 585 120.168) translate(0 100.117)"/>
                        <path fill="#707B82" d="M47.58 23.307s23.614.137 32.545 8.886l5.22 3.23s2.346-20.056-23.407-33.648c0 0-23.88-6.632-36.521 5.755 0 0 9.357 4.34 12.132 6.308 2.826 2.002 10.03 9.47 10.03 9.47" transform="translate(-998 -100) translate(998 100.832) matrix(-1 0 0 1 585 120.168) translate(0 100.117)"/>
                        <path fill="#7BBAEC" d="M44.13 262.004c-1.045-11.976-7.388-49.78-11.047-65.616-.392-1.716-.88-3.205-1.434-4.504.258-15.604-2.352-33.72-2.352-33.72 12.993-47.305-6.357-49.488-6.357-49.488-38.975-5.372-16.484 94.941-16.484 94.941.806 1.773 1.63 3.275 2.489 4.566.947 29.583 19.663 68.351 19.663 68.351 6.063-.134 16.557-2.55 15.521-14.53" transform="translate(-998 -100) translate(998 100.832) matrix(-1 0 0 1 585 120.168) translate(0 100.117)"/>
                        <path fill="#707B82" d="M44.13 262.004c-1.045-11.976-7.388-49.78-11.047-65.616-.392-1.716-.88-3.205-1.434-4.504.258-15.604-2.352-33.72-2.352-33.72 12.993-47.305-6.357-49.488-6.357-49.488-38.975-5.372-16.484 94.941-16.484 94.941.806 1.773 1.63 3.275 2.489 4.566.947 29.583 19.663 68.351 19.663 68.351 6.063-.134 16.557-2.55 15.521-14.53" transform="translate(-998 -100) translate(998 100.832) matrix(-1 0 0 1 585 120.168) translate(0 100.117)"/>
                        <path fill="#CAD9E0" d="M65.308 286.815c-1.364 5.104-7.621.74-9.075-.876-2.67-1.593-3.269-2.95-5.85-2.448-2.912.564-15.004-21.29-12.037-20.16 1.2.63 13.656 4.943 19.255 15.33 1.282 2.39.894 2.86 3.165 4.837 1.176 1.03 2.529 1.828 4.542 3.317" transform="translate(-998 -100) translate(998 100.832) matrix(-1 0 0 1 585 120.168) translate(0 100.117)"/>
                        <g transform="translate(-998 -100) translate(998 100.832) matrix(-1 0 0 1 585 120.168) translate(0 100.117) translate(28.634 261.54)">
                            <mask id="sq3pmoh5mg" fill="#fff">
                                <use xlink:href="#h6t2ib9mif"/>
                            </mask>
                            <path fill="#CAD9E0" d="M.034 8.466c2.615 2.784 2.498 4.346 3.835 5.97C7.446 18.738 3 23.101 9.73 31.026l7.78 8.298c1.02 1.193 5.603 3.24 9.828 2.273 2.434-.558 4.678-1.309 4.678-1.309 2.3-.77 6.92-3.134-1.535-7.455-2.764-1.417-4.27-4.364-4.27-4.364-3.091-12.033-5.93-7.165-7.188-12.742-1.121-4.965-2.698-6.44-6.293-15.037L6.528 2.96 2.054 5.43.034 8.466z" mask="url(#sq3pmoh5mg)"/>
                        </g>
                        <path fill="#F7FCFC" d="M23.398 267.534s11.764-3.035 20.978-11.255l4.526 11.975s-6.575 16.425-19.6 9.947c-1.28-.636-5.904-10.667-5.904-10.667" transform="translate(-998 -100) translate(998 100.832) matrix(-1 0 0 1 585 120.168) translate(0 100.117)"/>
                        <path fill="#707B82" d="M29.797 4.192c-1.665 1.312-3.977 2.645-5.385 4.01-26.755 25.837-9.8 61.306-1.667 76.354 15.083 27.896 53.47 35.543 53.47 35.543-49.362-48.34-27.94-98.672-27.94-98.672L29.797 4.192z" transform="translate(-998 -100) translate(998 100.832) matrix(-1 0 0 1 585 120.168) translate(0 100.117)"/>
                    </g>
                    <g>
                        <g>
                            <path fill="#E8E8E8" d="M166.824 262.236s-30.503-16.713-38.84-22.554c-6.024-4.223-4.143-7.835-.445-19.861 3.698-12.029 11.768-34.044 11.768-34.044l-7.436-1.194s-8.658 26.55-11.744 36.709c-3.086 10.158-4.407 17.343 4.852 23.185 12.59 7.938 41.845 24.863 41.845 24.863v-7.104z" transform="translate(-998 -100) translate(998 100.832) matrix(-1 0 0 1 585 120.168) translate(147.424 121.636) translate(0 .079)"/>
                            <path fill="#E8E8E8" d="M138.384 249.58c-6.788-4.168-14.32-6.705-16.638-15.742-2.263-8.81 2.422-17.923 5.718-26.028 4.526-11.13 4.821-21.778 10.094-32.588-24.63 2.456-49.204 20.883-50.94 23.083-1.848 2.34-15.501 52.988-17.347 59.594-1.85 6.606.028 10.522 11.396 17.332 11.37 6.81 33.7 17.22 33.7 17.22l50.708-28.66c-8.11-4.822-18.429-9.139-26.691-14.211" transform="translate(-998 -100) translate(998 100.832) matrix(-1 0 0 1 585 120.168) translate(147.424 121.636) translate(0 .079)"/>
                            <g transform="translate(-998 -100) translate(998 100.832) matrix(-1 0 0 1 585 120.168) translate(147.424 121.636) translate(0 .079) translate(64.875 213.652)">
                                <mask id="ygt8y0xjti" fill="#fff">
                                    <use xlink:href="#62vz2szpkh"/>
                                </mask>
                                <path fill="#B7B7B7" d="M49.49 78.799s-31.107-17.566-39.245-22.68c-6.23-3.912-3.738-8.267-.04-20.293C13.901 23.8 21.974 1.782 21.974 1.782L14.535.59S5.877 27.139 2.793 37.297c-3.086 10.16-5.185 18.055 4.075 23.894 12.59 7.938 42.623 24.71 42.623 24.71V78.8z" mask="url(#ygt8y0xjti)"/>
                            </g>
                            <g transform="translate(-998 -100) translate(998 100.832) matrix(-1 0 0 1 585 120.168) translate(147.424 121.636) translate(0 .079) translate(113.662 262.11)">
                                <mask id="mq07dc02dk" fill="#fff">
                                    <use xlink:href="#ttqcig1buj"/>
                                </mask>
                                <path fill="#CCC" d="M0.705 30.341L0.705 37.445 53.162 7.229 53.162 0.126z" mask="url(#mq07dc02dk)"/>
                            </g>
                            <path fill="#333" d="M122.202 214.685L113.568 209.669 113.553 203.982 122.187 208.997z" transform="translate(-998 -100) translate(998 100.832) matrix(-1 0 0 1 585 120.168) translate(147.424 121.636) translate(0 .079)"/>
                            <path fill="#525252" d="M95.174 230.29L86.542 225.274 113.568 209.669 122.202 214.684z" transform="translate(-998 -100) translate(998 100.832) matrix(-1 0 0 1 585 120.168) translate(147.424 121.636) translate(0 .079)"/>
                            <path fill="#848484" d="M95.159 224.603L86.525 219.585 113.553 203.982 122.187 208.997z" transform="translate(-998 -100) translate(998 100.832) matrix(-1 0 0 1 585 120.168) translate(147.424 121.636) translate(0 .079)"/>
                            <path fill="#767676" d="M122.186 208.997L122.202 214.684 95.176 230.29 95.158 224.603z" transform="translate(-998 -100) translate(998 100.832) matrix(-1 0 0 1 585 120.168) translate(147.424 121.636) translate(0 .079)"/>
                            <path fill="#525252" d="M95.175 230.29L86.541 225.274 86.526 219.585 95.16 224.603z" transform="translate(-998 -100) translate(998 100.832) matrix(-1 0 0 1 585 120.168) translate(147.424 121.636) translate(0 .079)"/>
                            <path fill="#333" d="M196.137 160.4L187.503 155.383 187.135 25.416 195.769 30.431z" transform="translate(-998 -100) translate(998 100.832) matrix(-1 0 0 1 585 120.168) translate(147.424 121.636) translate(0 .079)"/>
                            <path fill="#525252" d="M21.175 261.415L12.541 256.397 187.503 155.381 196.137 160.401z" transform="translate(-998 -100) translate(998 100.832) matrix(-1 0 0 1 585 120.168) translate(147.424 121.636) translate(0 .079)"/>
                            <path fill="#525252" d="M21.175 261.415L12.541 256.397 12.173 126.43 20.807 131.446z" transform="translate(-998 -100) translate(998 100.832) matrix(-1 0 0 1 585 120.168) translate(147.424 121.636) translate(0 .079)"/>
                            <path fill="#848484" d="M20.806 131.446L12.174 126.43 187.134 25.415 195.768 30.432z" transform="translate(-998 -100) translate(998 100.832) matrix(-1 0 0 1 585 120.168) translate(147.424 121.636) translate(0 .079)"/>
                            <path fill="#CECECC" d="M195.768 30.432L196.136 160.401 21.174 261.414 20.806 131.445z" transform="translate(-998 -100) translate(998 100.832) matrix(-1 0 0 1 585 120.168) translate(147.424 121.636) translate(0 .079)"/>
                            <g transform="translate(-998 -100) translate(998 100.832) matrix(-1 0 0 1 585 120.168) translate(147.424 121.636) translate(0 .079)">
                                <mask id="6mk1czx2dm" fill="#fff">
                                    <use xlink:href="#savceq772l"/>
                                </mask>
                                <path fill="#FFB640" d="M8.634 120.818L0 115.8 199.196 0.796 207.831 5.811z" mask="url(#6mk1czx2dm)"/>
                            </g>
                        </g>
                        <g transform="translate(-998 -100) translate(998 100.832) matrix(-1 0 0 1 585 120.168) translate(147.424 121.636) translate(7.937 5.813)">
                            <mask id="a7do9eormp" fill="#fff">
                                <use xlink:href="#ejd7bk1iun"/>
                            </mask>
                            <path fill="url(#ffkyqn1q2o)" d="M.695 115.083l.472 165.237L200.36 165.313 199.892.08.695 115.083zm12.174 10.628L187.831 24.697l.37 129.969L13.239 255.68l-.37-129.97zm74.353 93.159l27.026-15.608.016 5.687-27.026 15.606-.016-5.685z" mask="url(#a7do9eormp)"/>
                        </g>
                        <g>
                            <g transform="translate(-998 -100) translate(998 100.832) matrix(-1 0 0 1 585 120.168) translate(147.424 121.636) translate(0 105.803) translate(0 9.81)">
                                <mask id="sq0mqu075r" fill="#fff">
                                    <use xlink:href="#y4ixjf8llq"/>
                                </mask>
                                <path fill="#F59C00" d="M9.103 170.519L0.468 165.501 -0.001 0.264 8.634 5.282z" mask="url(#sq0mqu075r)"/>
                            </g>
                            <path fill="#9DE4ED" d="M141.575 1.243l8.634 5.017c-.733-.425-1.544-.733-2.425-.905L139.15.338c.881.174 1.692.48 2.425.905" transform="translate(-998 -100) translate(998 100.832) matrix(-1 0 0 1 585 120.168) translate(147.424 121.636) translate(0 105.803)"/>
                        </g>
                        <g>
                            <g transform="translate(-998 -100) translate(998 100.832) matrix(-1 0 0 1 585 120.168) translate(147.424 121.636) translate(138.764 105.803)">
                                <mask id="vknmfi831t" fill="#fff">
                                    <use xlink:href="#kfhj7wi9qs"/>
                                </mask>
                                <path fill="#9DE4ED" d="M9.02 5.355L.386.338c.24.046.475.106.705.172l8.634 5.015c-.232-.066-.465-.123-.705-.17" mask="url(#vknmfi831t)"/>
                            </g>
                            <g transform="translate(-998 -100) translate(998 100.832) matrix(-1 0 0 1 585 120.168) translate(147.424 121.636) translate(138.764 105.803)">
                                <mask id="mhi4l9asbv" fill="#fff">
                                    <use xlink:href="#x605twiztu"/>
                                </mask>
                                <path fill="#9DE4ED" d="M9.724 5.525L1.09.51c.289.084.568.183.84.293l8.633 5.02c-.27-.115-.55-.214-.839-.298" mask="url(#mhi4l9asbv)"/>
                            </g>
                            <g transform="translate(-998 -100) translate(998 100.832) matrix(-1 0 0 1 585 120.168) translate(147.424 121.636) translate(138.764 105.803)">
                                <mask id="8yb91vfovx" fill="#fff">
                                    <use xlink:href="#7taomrjnhw"/>
                                </mask>
                                <path fill="#9DE4ED" d="M10.563 5.822L1.93.805c.275.114.54.244.795.387l8.634 5.02c-.255-.145-.52-.275-.795-.39" mask="url(#8yb91vfovx)"/>
                            </g>
                            <g transform="translate(-998 -100) translate(998 100.832) matrix(-1 0 0 1 585 120.168) translate(147.424 121.636) translate(138.764 105.803)">
                                <mask id="qxeociwj5z" fill="#fff">
                                    <use xlink:href="#6nh4ogkvfy"/>
                                </mask>
                                <path fill="#9DE4ED" d="M11.359 6.212L2.725 1.194c.028.015.057.03.086.048l8.634 5.018c-.029-.015-.057-.033-.086-.048" mask="url(#qxeociwj5z)"/>
                            </g>
                        </g>
                        <path fill="#9DE4ED" d="M137.324 88.73l8.634 5.018c-3.06-1.775-6.227-1.658-9.81.412-.089.049-.177.101-.265.154l-8.632-5.017c.088-.053.174-.104.262-.154 3.584-2.069 6.751-2.19 9.81-.412" transform="translate(-998 -100) translate(998 100.832) matrix(-1 0 0 1 585 120.168) translate(147.424 121.636)"/>
                        <g>
                            <g transform="translate(-998 -100) translate(998 100.832) matrix(-1 0 0 1 585 120.168) translate(147.424 121.636) translate(126.877 87.309)">
                                <mask id="0ne3thu0gB" fill="#fff">
                                    <use xlink:href="#llzsto1kuA"/>
                                </mask>
                                <path fill="#9DE4ED" d="M9.006 7.006L.374 1.988l.262-.156c.586-.337 1.161-.624 1.725-.857l8.634 5.018c-.564.233-1.138.52-1.724.859-.088.048-.177.1-.265.154" mask="url(#0ne3thu0gB)"/>
                            </g>
                            <g transform="translate(-998 -100) translate(998 100.832) matrix(-1 0 0 1 585 120.168) translate(147.424 121.636) translate(126.877 87.309)">
                                <mask id="5miixfqt3D" fill="#fff">
                                    <use xlink:href="#n7mziqg75C"/>
                                </mask>
                                <path fill="#9DE4ED" d="M10.996 5.993L2.362.975c.467-.194.927-.352 1.383-.476l8.634 5.018c-.456.123-.916.282-1.383.476" mask="url(#5miixfqt3D)"/>
                            </g>
                            <g transform="translate(-998 -100) translate(998 100.832) matrix(-1 0 0 1 585 120.168) translate(147.424 121.636) translate(126.877 87.309)">
                                <mask id="6j1elp9c7F" fill="#fff">
                                    <use xlink:href="#7f5g1pxcrE"/>
                                </mask>
                                <path fill="#9DE4ED" d="M12.379 5.517L3.745.5c.352-.095.7-.168 1.044-.223l8.634 5.018c-.346.053-.692.128-1.044.222" mask="url(#6j1elp9c7F)"/>
                            </g>
                            <g transform="translate(-998 -100) translate(998 100.832) matrix(-1 0 0 1 585 120.168) translate(147.424 121.636) translate(126.877 87.309)">
                                <mask id="qx2ixsq73H" fill="#fff">
                                    <use xlink:href="#jgvnt3yblG"/>
                                </mask>
                                <path fill="#9DE4ED" d="M13.423 5.296L4.79.278c.31-.048.62-.077.925-.09l8.632 5.015c-.304.016-.612.046-.923.093" mask="url(#qx2ixsq73H)"/>
                            </g>
                            <g transform="translate(-998 -100) translate(998 100.832) matrix(-1 0 0 1 585 120.168) translate(147.424 121.636) translate(126.877 87.309)">
                                <mask id="3gkeyedv9J" fill="#fff">
                                    <use xlink:href="#zd03quhb0I"/>
                                </mask>
                                <path fill="#9DE4ED" d="M14.347 5.203L5.715.188c.291-.013.582-.011.87.009l8.632 5.015c-.286-.018-.577-.022-.87-.009" mask="url(#3gkeyedv9J)"/>
                            </g>
                            <g transform="translate(-998 -100) translate(998 100.832) matrix(-1 0 0 1 585 120.168) translate(147.424 121.636) translate(126.877 87.309)">
                                <mask id="poxlqm6w2L" fill="#fff">
                                    <use xlink:href="#49hdjqi0hK"/>
                                </mask>
                                <path fill="#9DE4ED" d="M15.217 5.212L6.585.196c.287.016.575.051.861.102l8.632 5.017c-.284-.05-.572-.083-.86-.103" mask="url(#poxlqm6w2L)"/>
                            </g>
                            <g transform="translate(-998 -100) translate(998 100.832) matrix(-1 0 0 1 585 120.168) translate(147.424 121.636) translate(126.877 87.309)">
                                <mask id="hmtd34tllN" fill="#fff">
                                    <use xlink:href="#01qmh31nbM"/>
                                </mask>
                                <path fill="#9DE4ED" d="M16.079 5.315L7.447.297c.295.051.59.12.883.203l8.634 5.02c-.293-.086-.588-.154-.885-.205" mask="url(#hmtd34tllN)"/>
                            </g>
                            <g transform="translate(-998 -100) translate(998 100.832) matrix(-1 0 0 1 585 120.168) translate(147.424 121.636) translate(126.877 87.309)">
                                <mask id="l449t8wvxP" fill="#fff">
                                    <use xlink:href="#aktni3x6nO"/>
                                </mask>
                                <path fill="#9DE4ED" d="M16.964 5.52L8.332.501c.317.092.632.203.945.335l8.634 5.017c-.313-.13-.63-.242-.947-.335" mask="url(#l449t8wvxP)"/>
                            </g>
                            <g transform="translate(-998 -100) translate(998 100.832) matrix(-1 0 0 1 585 120.168) translate(147.424 121.636) translate(126.877 87.309)">
                                <mask id="me7ye3kysR" fill="#fff">
                                    <use xlink:href="#lqf4qpj1pQ"/>
                                </mask>
                                <path fill="#9DE4ED" d="M17.91 5.855L9.278.837c.35.148.699.32 1.047.516l8.634 5.015c-.348-.194-.696-.368-1.049-.513" mask="url(#me7ye3kysR)"/>
                            </g>
                            <g transform="translate(-998 -100) translate(998 100.832) matrix(-1 0 0 1 585 120.168) translate(147.424 121.636) translate(126.877 87.309)">
                                <mask id="gs4l1k4bhT" fill="#fff">
                                    <use xlink:href="#7jlsg8h81S"/>
                                </mask>
                                <path fill="#9DE4ED" d="M18.959 6.369l-8.634-5.015c.041.02.081.044.12.068l8.635 5.017c-.04-.024-.082-.046-.121-.07" mask="url(#gs4l1k4bhT)"/>
                            </g>
                        </g>
                        <g transform="translate(-998 -100) translate(998 100.832) matrix(-1 0 0 1 585 120.168) translate(147.424 121.636) translate(104.851 100.525)">
                            <mask id="2m5incrbaW" fill="#fff">
                                <use xlink:href="#kmb90sk6dU"/>
                            </mask>
                            <path fill="url(#lzgs04g1qV)" d="M.812 80.233c.013 2.412.868 4.113 2.244 4.914l8.635 5.018c-1.377-.8-2.232-2.502-2.245-4.912L9.222 5.446.585.43l.227 79.804z" mask="url(#2m5incrbaW)"/>
                        </g>
                        <path fill="#9DE4ED" d="M114.644 102.282c.015-.05.03-.104.046-.154.185-.606.407-1.21.665-1.806l.009-.018c.266-.61.568-1.205.899-1.786l.035-.062c.326-.564.683-1.108 1.062-1.632l.107-.143c.35-.476.727-.925 1.117-1.35.084-.093.168-.181.253-.271.311-.326.637-.624.965-.91.148-.128.289-.267.439-.385.462-.373.936-.714 1.425-1.003.486-.28.969-.524 1.447-.75.13-.06.257-.12.387-.177.27-.121.536-.22.8-.324.385-.145.764-.277 1.14-.39.232-.07.466-.14.692-.196.225-.055.445-.099.668-.143.282-.053.562-.101.837-.132.167-.02.335-.037.498-.05.332-.023.658-.031.978-.023.099 0 .2-.004.297.003.41.02.808.068 1.198.14.088.018.17.042.256.06.315.07.62.159.92.26.093.033.185.064.273.097.37.145.732.308 1.073.509l-8.632-5.018-.088-.05c-.262-.146-.53-.28-.808-.395-.058-.024-.12-.04-.179-.064-.088-.035-.18-.064-.273-.097-.132-.044-.26-.099-.394-.138-.172-.049-.35-.082-.524-.122-.086-.02-.17-.044-.258-.057-.042-.009-.082-.022-.123-.028-.318-.056-.644-.095-.974-.115-.033-.002-.068 0-.101-.002-.097-.005-.198 0-.298-.002-.22-.005-.438-.016-.665-.007-.101.004-.207.024-.31.033-.166.011-.333.03-.5.048-.135.016-.265.018-.399.04-.143.022-.29.066-.436.093-.223.044-.445.088-.67.14-.105.03-.211.042-.32.071-.12.033-.248.093-.371.128-.375.112-.756.244-1.141.392-.128.048-.25.077-.38.132-.138.055-.279.126-.418.19-.13.057-.26.114-.39.178-.477.225-.96.467-1.444.749-.492.286-.965.63-1.428 1-.15.12-.29.26-.436.385-.218.192-.44.366-.65.573-.107.108-.211.229-.317.34-.086.087-.17.175-.253.268-.086.097-.178.185-.264.282-.214.249-.423.5-.626.76-.077.101-.152.207-.227.31-.035.046-.07.097-.108.143-.057.082-.119.159-.176.243-.152.218-.302.44-.445.663-.136.216-.269.431-.396.65-.016.026-.029.052-.042.074l-.035.064c-.097.17-.192.337-.285.509-.114.216-.224.432-.33.652-.099.207-.194.414-.284.621l-.011.024-.011.022c-.097.227-.192.456-.28.685-.092.243-.18.483-.26.725-.042.123-.075.249-.112.372-.018.053-.033.102-.048.154-.025.086-.053.17-.078.254-.081.293-.152.588-.215.876-.038.179-.062.357-.09.538-.018.09-.034.183-.05.273-.012.084-.03.17-.041.253-.066.505-.1 1.005-.1 1.494l8.635 5.02c-.002-.571.053-1.16.141-1.75.013-.09.03-.182.048-.275.095-.553.219-1.108.384-1.665" transform="translate(-998 -100) translate(998 100.832) matrix(-1 0 0 1 585 120.168) translate(147.424 121.636)"/>
                        <g transform="translate(-998 -100) translate(998 100.832) matrix(-1 0 0 1 585 120.168) translate(147.424 121.636) translate(80.294 193.908)">
                            <mask id="l4osv8abhZ" fill="#fff">
                                <use xlink:href="#e3fx4jn7gX"/>
                            </mask>
                            <path fill="url(#b1ebxkinxY)" d="M2.912 3.143l8.634 5.015c-1.075-.625-2.007-1.517-2.751-2.674L.161.467c.746 1.156 1.676 2.048 2.75 2.676" mask="url(#l4osv8abhZ)"/>
                        </g>
                        <g transform="translate(-998 -100) translate(998 100.832) matrix(-1 0 0 1 585 120.168) translate(147.424 121.636) translate(80.294 193.908)">
                            <mask id="myp0j40aqab" fill="#fff">
                                <use xlink:href="#l4d8pn276aa"/>
                            </mask>
                            <path fill="url(#b1ebxkinxY)" d="M2.912 3.143l8.634 5.015c-1.075-.625-2.007-1.517-2.751-2.674L.161.467c.746 1.156 1.676 2.048 2.75 2.676" mask="url(#myp0j40aqab)"/>
                        </g>
                        <g>
                            <path fill="#489FAA" d="M15.706 51.017c-.271-.518-.485-1.084-.67-1.679-.057-.189-.1-.39-.148-.585-.108-.426-.202-.862-.268-1.315-.036-.236-.062-.48-.088-.723-.044-.454-.069-.92-.075-1.399-.005-.244-.011-.49-.005-.742.014-.561.06-1.136.124-1.72.02-.185.026-.361.05-.548.033-.258.09-.525.135-.787.07-.42.138-.837.233-1.266.035-.163.082-.328.121-.491.124-.51.26-1.02.414-1.54.047-.148.088-.295.137-.445.214-.663.445-1.33.711-2.002l-8.632-5.016c-.046.115-.092.232-.136.349-.17.436-.326.872-.472 1.308-.037.114-.068.229-.105.343-.047.15-.09.3-.137.45-.061.209-.134.42-.191.63-.084.304-.15.603-.223.903-.04.165-.086.33-.121.493-.015.066-.035.135-.05.205-.076.357-.122.705-.181 1.055-.047.264-.102.533-.137.795-.004.035-.015.075-.02.11-.02.15-.015.287-.03.434-.064.584-.108 1.161-.124 1.723-.007.253 0 .495.005.746.008.476.03.94.074 1.392.027.247.053.487.088.727.069.456.161.888.27 1.313.05.196.09.396.147.586.185.592.4 1.16.67 1.68.21.437.717 1.034 1.469 1.602.25.19.528.376.832.553l8.632 5.017c-1.214-.707-2.017-1.57-2.3-2.156" transform="translate(-998 -100) translate(998 100.832) matrix(-1 0 0 1 585 120.168) translate(147.424 121.636) translate(60.8 146.78)"/>
                            <path fill="#71C8DA" d="M13.959 34.865l-8.634-5.017c-.687-.4-1.31-.906-1.864-1.518C-1.556 22.766.323 10.159 7.657.176l8.634 5.018c-7.334 9.984-9.213 22.59-4.195 28.156.552.61 1.176 1.114 1.863 1.515" transform="translate(-998 -100) translate(998 100.832) matrix(-1 0 0 1 585 120.168) translate(147.424 121.636) translate(60.8 146.78)"/>
                        </g>
                        <g>
                            <g transform="translate(-998 -100) translate(998 100.832) matrix(-1 0 0 1 585 120.168) translate(147.424 121.636) translate(60.8 146.78)">
                                <mask id="1gc7f3d5cad" fill="#fff">
                                    <use xlink:href="#7z5iy8rezac"/>
                                </mask>
                                <path fill="#71C8DA" d="M13.959 34.865l-8.634-5.017c-.687-.4-1.31-.906-1.864-1.518C1.045 25.65.228 21.332.851 16.465l8.634 5.015c-.623 4.87.192 9.187 2.61 11.87.553.61 1.177 1.114 1.864 1.515" mask="url(#1gc7f3d5cad)"/>
                            </g>
                            <g transform="translate(-998 -100) translate(998 100.832) matrix(-1 0 0 1 585 120.168) translate(147.424 121.636) translate(60.8 146.78)">
                                <mask id="qzz6pegvmaf" fill="#fff">
                                    <use xlink:href="#0ods3027oae"/>
                                </mask>
                                <path fill="#71C8DA" d="M9.485 21.48L.851 16.464c.097-.762.231-1.537.396-2.319l8.634 5.015c-.167.787-.3 1.56-.396 2.32" mask="url(#qzz6pegvmaf)"/>
                            </g>
                            <g transform="translate(-998 -100) translate(998 100.832) matrix(-1 0 0 1 585 120.168) translate(147.424 121.636) translate(60.8 146.78)">
                                <mask id="rw14gzkffah" fill="#fff">
                                    <use xlink:href="#7ylm8gig3ag"/>
                                </mask>
                                <path fill="#71C8DA" d="M9.882 19.16l-8.634-5.015c.13-.614.282-1.233.456-1.854l8.634 5.015c-.174.624-.326 1.242-.456 1.855" mask="url(#rw14gzkffah)"/>
                            </g>
                            <g transform="translate(-998 -100) translate(998 100.832) matrix(-1 0 0 1 585 120.168) translate(147.424 121.636) translate(60.8 146.78)">
                                <mask id="jeoznivrvaj" fill="#fff">
                                    <use xlink:href="#k2cid3ajcai"/>
                                </mask>
                                <path fill="#71C8DA" d="M10.337 17.307L1.703 12.29c.152-.548.319-1.097.504-1.65l8.634 5.018c-.185.55-.352 1.101-.504 1.648" mask="url(#jeoznivrvaj)"/>
                            </g>
                            <g transform="translate(-998 -100) translate(998 100.832) matrix(-1 0 0 1 585 120.168) translate(147.424 121.636) translate(60.8 146.78)">
                                <mask id="kbrpd3gcqal" fill="#fff">
                                    <use xlink:href="#jalwftg4mak"/>
                                </mask>
                                <path fill="#71C8DA" d="M10.84 15.66l-8.634-5.018c.17-.507.35-1.014.546-1.52l8.634 5.017c-.196.507-.379 1.016-.546 1.52" mask="url(#kbrpd3gcqal)"/>
                            </g>
                            <g transform="translate(-998 -100) translate(998 100.832) matrix(-1 0 0 1 585 120.168) translate(147.424 121.636) translate(60.8 146.78)">
                                <mask id="x0kvuhxzvan" fill="#fff">
                                    <use xlink:href="#6h66vleg7am"/>
                                </mask>
                                <path fill="#71C8DA" d="M11.385 14.138L2.751 9.123c.185-.48.379-.96.588-1.438l8.634 5.017c-.209.478-.405.958-.588 1.436" mask="url(#x0kvuhxzvan)"/>
                            </g>
                            <g transform="translate(-998 -100) translate(998 100.832) matrix(-1 0 0 1 585 120.168) translate(147.424 121.636) translate(60.8 146.78)">
                                <mask id="mfh75aqmbap" fill="#fff">
                                    <use xlink:href="#dc6nmbwlwao"/>
                                </mask>
                                <path fill="#71C8DA" d="M11.973 12.701L3.338 7.686c.2-.462.412-.923.633-1.383l8.634 5.017c-.22.46-.432.921-.632 1.381" mask="url(#mfh75aqmbap)"/>
                            </g>
                            <g transform="translate(-998 -100) translate(998 100.832) matrix(-1 0 0 1 585 120.168) translate(147.424 121.636) translate(60.8 146.78)">
                                <mask id="0fay4uj8aar" fill="#fff">
                                    <use xlink:href="#b2gs5tn5maq"/>
                                </mask>
                                <path fill="#71C8DA" d="M12.605 11.32L3.971 6.304c.218-.45.445-.903.685-1.35l8.634 5.02c-.24.447-.467.896-.685 1.348" mask="url(#0fay4uj8aar)"/>
                            </g>
                            <g transform="translate(-998 -100) translate(998 100.832) matrix(-1 0 0 1 585 120.168) translate(147.424 121.636) translate(60.8 146.78)">
                                <mask id="jutez78syat" fill="#fff">
                                    <use xlink:href="#0t5gguxp4as"/>
                                </mask>
                                <path fill="#71C8DA" d="M13.289 9.972L4.655 4.954c.238-.449.489-.898.746-1.343l8.635 5.02c-.258.445-.51.892-.747 1.341" mask="url(#jutez78syat)"/>
                            </g>
                            <g transform="translate(-998 -100) translate(998 100.832) matrix(-1 0 0 1 585 120.168) translate(147.424 121.636) translate(60.8 146.78)">
                                <mask id="gog23vq5xav" fill="#fff">
                                    <use xlink:href="#x8ey422q4au"/>
                                </mask>
                                <path fill="#71C8DA" d="M14.036 8.63L5.402 3.612c.267-.456.544-.907.83-1.359l8.635 5.018c-.289.449-.564.903-.83 1.359" mask="url(#gog23vq5xav)"/>
                            </g>
                            <g transform="translate(-998 -100) translate(998 100.832) matrix(-1 0 0 1 585 120.168) translate(147.424 121.636) translate(60.8 146.78)">
                                <mask id="me2076udpax" fill="#fff">
                                    <use xlink:href="#sn2d4b753aw"/>
                                </mask>
                                <path fill="#71C8DA" d="M14.867 7.27L6.232 2.255c.302-.471.615-.94.94-1.403l8.633 5.017c-.324.463-.637.93-.938 1.401" mask="url(#me2076udpax)"/>
                            </g>
                            <g transform="translate(-998 -100) translate(998 100.832) matrix(-1 0 0 1 585 120.168) translate(147.424 121.636) translate(60.8 146.78)">
                                <mask id="kprtufbqraz" fill="#fff">
                                    <use xlink:href="#omrstel6yay"/>
                                </mask>
                                <path fill="#71C8DA" d="M15.806 5.87L7.174.853C7.33.626 7.493.4 7.658.176l8.634 5.018c-.165.225-.328.45-.486.676" mask="url(#kprtufbqraz)"/>
                            </g>
                        </g>
                        <g fill="#9DE4ED">
                            <path d="M25.18 19.165c.054-.101.11-.203.169-.304.442-.773.914-1.529 1.403-2.264.09-.135.178-.27.268-.403.498-.727 1.014-1.434 1.551-2.117.117-.15.24-.289.36-.438.415-.511.843-1.005 1.277-1.487.266-.293.535-.577.806-.86.462-.475.927-.942 1.405-1.38.095-.086.185-.176.28-.26.605-.542 1.227-1.044 1.854-1.518.141-.106.282-.207.425-.306.646-.465 1.3-.91 1.963-1.29.313-.181.623-.329.927-.461.1-.042.196-.08.293-.115.187-.072.37-.138.553-.191.112-.033.23-.066.34-.093.107-.026.21-.05.314-.066.137-.026.273-.048.405-.064.078-.006.155-.015.23-.02.174-.013.345-.015.51-.008.031 0 .06-.002.089 0 .194.01.38.037.564.072l.14.033c.144.033.282.073.417.12.042.015.086.03.128.048.171.066.341.143.5.236l-8.635-5.016c-.013-.009-.026-.017-.042-.024-.123-.07-.25-.134-.385-.19-.024-.01-.048-.017-.073-.026L33.09.73c-.069-.026-.135-.053-.205-.073-.069-.02-.141-.033-.212-.048-.046-.011-.092-.024-.138-.03-.03-.008-.053-.016-.082-.02-.15-.027-.304-.047-.462-.056h-.02c-.031-.002-.06 0-.088-.002-.133-.004-.265-.009-.401-.002-.036.002-.075.009-.113.01-.075.005-.152.016-.227.025-.077.009-.151.011-.23.024-.058.01-.118.024-.177.036-.104.02-.207.041-.313.068-.061.013-.12.02-.183.037-.052.016-.107.042-.16.057-.181.053-.364.117-.549.19-.066.024-.128.037-.196.066-.03.013-.066.033-.099.048-.304.133-.614.28-.927.459-.663.385-1.315.826-1.963 1.293-.143.1-.282.202-.423.308-.63.471-1.249.973-1.856 1.515-.095.084-.185.172-.278.26-.297.271-.595.54-.885.826-.179.176-.346.372-.522.555-.271.28-.54.564-.804.86-.155.167-.313.32-.465.495-.278.32-.546.66-.817.995-.117.146-.24.287-.357.434-.05.064-.104.124-.154.188-.38.486-.747.986-1.106 1.497-.1.141-.192.291-.289.434-.092.135-.18.267-.268.401-.135.2-.273.397-.403.6-.296.462-.582.933-.862 1.411-.048.082-.092.17-.14.253-.058.102-.115.205-.17.309-.16.282-.322.561-.476.848-.251.471-.491.949-.725 1.431-.028.058-.052.12-.081.179-.04.081-.075.165-.115.249-.16.346-.323.691-.478 1.042-.218.504-.427 1.017-.625 1.53-.013.036-.024.069-.04.104l8.634 5.017c.346-.905.732-1.795 1.141-2.674.04-.083.077-.17.117-.253.399-.837.828-1.658 1.282-2.46" transform="translate(-998 -100) translate(998 100.832) matrix(-1 0 0 1 585 120.168) translate(147.424 121.636) translate(66.078 96.993)"/>
                            <path d="M11.013 54.98l-8.634-5.017C-.597 46.087.163 38.188 2.244 34.005c3.128-6.304 6.789-11.599 11.762-14.47l8.634 5.019c-4.975 2.87-8.634 8.167-11.764 14.467-2.079 4.185-2.841 12.083.137 15.96" transform="translate(-998 -100) translate(998 100.832) matrix(-1 0 0 1 585 120.168) translate(147.424 121.636) translate(66.078 96.993)"/>
                        </g>
                        <g>
                            <g transform="translate(-998 -100) translate(998 100.832) matrix(-1 0 0 1 585 120.168) translate(147.424 121.636) translate(66.078 115.943)">
                                <mask id="j6yc5c5nzaB" fill="#fff">
                                    <use xlink:href="#u0y1fjdb8aA"/>
                                </mask>
                                <path fill="#9DE4ED" d="M11.013 36.031l-8.634-5.018C.513 28.584.117 24.58.59 20.897l8.634 5.015c-.473 3.685-.077 7.69 1.789 10.119" mask="url(#j6yc5c5nzaB)"/>
                            </g>
                            <g transform="translate(-998 -100) translate(998 100.832) matrix(-1 0 0 1 585 120.168) translate(147.424 121.636) translate(66.078 115.943)">
                                <mask id="kb15iw0p0aD" fill="#fff">
                                    <use xlink:href="#v6jdcgel7aC"/>
                                </mask>
                                <path fill="#9DE4ED" d="M9.224 25.913L.59 20.898c.08-.62.183-1.225.308-1.815l8.635 5.02c-.126.587-.23 1.195-.309 1.81" mask="url(#kb15iw0p0aD)"/>
                            </g>
                            <g transform="translate(-998 -100) translate(998 100.832) matrix(-1 0 0 1 585 120.168) translate(147.424 121.636) translate(66.078 115.943)">
                                <mask id="kgysnml1yaF" fill="#fff">
                                    <use xlink:href="#26dm0pc9raE"/>
                                </mask>
                                <path fill="#9DE4ED" d="M9.533 24.102L.899 19.084c.09-.425.191-.837.304-1.24l8.634 5.018c-.113.4-.214.817-.304 1.24" mask="url(#kgysnml1yaF)"/>
                            </g>
                            <g transform="translate(-998 -100) translate(998 100.832) matrix(-1 0 0 1 585 120.168) translate(147.424 121.636) translate(66.078 115.943)">
                                <mask id="o7yh4ohj2aH" fill="#fff">
                                    <use xlink:href="#xo8v9hplpaG"/>
                                </mask>
                                <path fill="#9DE4ED" d="M9.836 22.86l-8.634-5.015c.086-.31.178-.614.275-.905l8.634 5.017c-.096.293-.189.593-.275.904" mask="url(#o7yh4ohj2aH)"/>
                            </g>
                            <g transform="translate(-998 -100) translate(998 100.832) matrix(-1 0 0 1 585 120.168) translate(147.424 121.636) translate(66.078 115.943)">
                                <mask id="f9ih3lrcsaJ" fill="#fff">
                                    <use xlink:href="#k1wpzuap4aI"/>
                                </mask>
                                <path fill="#9DE4ED" d="M10.111 21.957L1.477 16.94c.082-.245.165-.48.254-.71l8.634 5.018c-.088.23-.172.467-.254.71" mask="url(#f9ih3lrcsaJ)"/>
                            </g>
                            <g transform="translate(-998 -100) translate(998 100.832) matrix(-1 0 0 1 585 120.168) translate(147.424 121.636) translate(66.078 115.943)">
                                <mask id="019rmpktjaL" fill="#fff">
                                    <use xlink:href="#ormo6nbgvaK"/>
                                </mask>
                                <path fill="#9DE4ED" d="M10.364 21.247L1.73 16.232c.077-.198.154-.39.236-.577l8.632 5.015c-.08.187-.159.38-.234.577" mask="url(#019rmpktjaL)"/>
                            </g>
                            <g transform="translate(-998 -100) translate(998 100.832) matrix(-1 0 0 1 585 120.168) translate(147.424 121.636) translate(66.078 115.943)">
                                <mask id="3qjtja6kpaN" fill="#fff">
                                    <use xlink:href="#be64j7bxdaM"/>
                                </mask>
                                <path fill="#9DE4ED" d="M10.599 20.67l-8.632-5.014c.068-.163.14-.318.211-.47l8.634 5.018c-.072.15-.143.308-.213.467" mask="url(#3qjtja6kpaN)"/>
                            </g>
                            <g transform="translate(-998 -100) translate(998 100.832) matrix(-1 0 0 1 585 120.168) translate(147.424 121.636) translate(66.078 115.943)">
                                <mask id="e6j2as7zpaP" fill="#fff">
                                    <use xlink:href="#9uyyhcglgaO"/>
                                </mask>
                                <path fill="#9DE4ED" d="M10.813 20.204l-8.634-5.017.066-.133c.301-.61.61-1.21.925-1.801l8.632 5.017c-.313.59-.621 1.192-.925 1.8-.02.046-.042.088-.064.134" mask="url(#e6j2as7zpaP)"/>
                            </g>
                            <g transform="translate(-998 -100) translate(998 100.832) matrix(-1 0 0 1 585 120.168) translate(147.424 121.636) translate(66.078 115.943)">
                                <mask id="patmy2wi3aR" fill="#fff">
                                    <use xlink:href="#1tuvawsb5aQ"/>
                                </mask>
                                <path fill="#9DE4ED" d="M11.802 18.27L3.17 13.253c.372-.703.751-1.388 1.143-2.057l8.635 5.017c-.393.67-.774 1.357-1.146 2.057" mask="url(#patmy2wi3aR)"/>
                            </g>
                            <g transform="translate(-998 -100) translate(998 100.832) matrix(-1 0 0 1 585 120.168) translate(147.424 121.636) translate(66.078 115.943)">
                                <mask id="rxgl6a2gaaT" fill="#fff">
                                    <use xlink:href="#569usvhkaaS"/>
                                </mask>
                                <path fill="#9DE4ED" d="M12.946 16.214l-8.634-5.018c.34-.583.687-1.154 1.042-1.709l8.634 5.018c-.354.557-.702 1.125-1.042 1.709" mask="url(#rxgl6a2gaaT)"/>
                            </g>
                            <g transform="translate(-998 -100) translate(998 100.832) matrix(-1 0 0 1 585 120.168) translate(147.424 121.636) translate(66.078 115.943)">
                                <mask id="evpfa1lovaV" fill="#fff">
                                    <use xlink:href="#p86ms5nhwaU"/>
                                </mask>
                                <path fill="#9DE4ED" d="M13.989 14.504L5.355 9.49c.328-.513.66-1.011 1-1.498l8.634 5.017c-.34.487-.674.987-1 1.496" mask="url(#evpfa1lovaV)"/>
                            </g>
                            <g transform="translate(-998 -100) translate(998 100.832) matrix(-1 0 0 1 585 120.168) translate(147.424 121.636) translate(66.078 115.943)">
                                <mask id="2vqpt34daaX" fill="#fff">
                                    <use xlink:href="#okz4vvnj1aW"/>
                                </mask>
                                <path fill="#9DE4ED" d="M14.989 13.01L6.355 7.991c.33-.472.667-.93 1.013-1.373l8.634 5.016c-.346.445-.683.903-1.013 1.374" mask="url(#2vqpt34daaX)"/>
                            </g>
                            <g transform="translate(-998 -100) translate(998 100.832) matrix(-1 0 0 1 585 120.168) translate(147.424 121.636) translate(66.078 115.943)">
                                <mask id="5icstbjwcaZ" fill="#fff">
                                    <use xlink:href="#fp2t5npsnaY"/>
                                </mask>
                                <path fill="#9DE4ED" d="M16.002 11.635L7.368 6.619c.36-.465.729-.916 1.105-1.35l8.632 5.02c-.374.431-.744.88-1.103 1.346" mask="url(#5icstbjwcaZ)"/>
                            </g>
                            <g transform="translate(-998 -100) translate(998 100.832) matrix(-1 0 0 1 585 120.168) translate(147.424 121.636) translate(66.078 115.943)">
                                <mask id="a1ibismnjbb" fill="#fff">
                                    <use xlink:href="#3i5mo37lbba"/>
                                </mask>
                                <path fill="#9DE4ED" d="M17.107 10.288L8.472 5.271c.445-.514.903-1.003 1.375-1.467l8.632 5.017c-.47.465-.928.956-1.372 1.467" mask="url(#a1ibismnjbb)"/>
                            </g>
                            <g transform="translate(-998 -100) translate(998 100.832) matrix(-1 0 0 1 585 120.168) translate(147.424 121.636) translate(66.078 115.943)">
                                <mask id="l9yqtj90qbd" fill="#fff">
                                    <use xlink:href="#8yrra1c3pbc"/>
                                </mask>
                                <path fill="#9DE4ED" d="M18.479 8.821L9.847 3.804c1.28-1.27 2.66-2.355 4.158-3.218l8.635 5.017c-1.5.866-2.88 1.952-4.161 3.218" mask="url(#l9yqtj90qbd)"/>
                            </g>
                        </g>
                        <g transform="translate(-998 -100) translate(998 100.832) matrix(-1 0 0 1 585 120.168) translate(147.424 121.636) translate(113.662 90.385)">
                            <mask id="elud32y5fbg" fill="#fff">
                                <use xlink:href="#1elb2sq53be"/>
                            </mask>
                            <path fill="url(#bu1dpkz74bf)" d="M8.006 2.379C3.792 4.848.396 10.744.41 15.583l.225 79.81c.024 4.832 3.434 6.812 7.656 4.4 5.92-3.431 11.352-10.31 14.284-18.006 6.418-3.707 11.52-13.15 12.4-16.022 1.875-5.867 1.593-11.257-.766-14.41 4.414-5.981 7.035-13.246 7.005-19.36-.005-6.132-2.66-10.348-7.093-11.22 3.101-7.656 1.916-14.484.055-16.07-3.652-3.086-7.368-3.425-11.691-.93-.088.049-.177.102-.265.154C20.61 1.443 18.151.174 15.235.174c-2.205 0-4.674.727-7.23 2.205" mask="url(#elud32y5fbg)"/>
                        </g>
                        <g transform="translate(-998 -100) translate(998 100.832) matrix(-1 0 0 1 585 120.168) translate(147.424 121.636) translate(69.61 102.398)">
                            <mask id="6z11enijxbj" fill="#fff">
                                <use xlink:href="#h0ft2tdmfbh"/>
                            </mask>
                            <path fill="url(#2qwnduxm9bi)" d="M33.408 1.13C27.475 4.568 22.043 11.447 19.11 19.15c-4.976 2.87-8.634 8.167-11.764 14.466-2.08 4.185-2.841 12.084.137 15.96-7.337 9.982-9.214 22.588-4.196 28.152 1.145 1.27 2.603 2.085 4.281 2.427-2.332 5.861-2.585 11.566-.671 15.242.797 1.647 5.744 5.544 12.347 1.733l.236-.136c2.822 4.376 8.284 4.978 14.218 1.553 4.211-2.472 7.597-8.361 7.594-13.207l-.226-79.81C41.047 2.098 39.314.107 36.8.107c-1.022 0-2.174.33-3.392 1.024" mask="url(#6z11enijxbj)"/>
                        </g>
                        <g>
                            <path fill="#BDEEF2" d="M109.327 183.334l-.227-79.805c-.013-4.84 3.383-10.737 7.595-13.209 5.934-3.425 11.385-2.817 14.218 1.553l.264-.156c4.321-2.496 8.04-2.154 11.691.932.24.204.467.5.679.87-.34-1.397-.857-2.415-1.443-2.912-3.65-3.086-7.368-3.425-11.69-.93-.087.049-.175.1-.264.154-2.832-4.372-8.286-4.977-14.217-1.552-4.214 2.47-7.61 8.367-7.595 13.209l.225 79.804c.009 1.485.337 2.698.91 3.6-.09-.48-.144-.998-.146-1.558M71.985 133.573c3.13-6.301 6.788-11.599 11.762-14.469 2.936-7.7 8.368-14.579 14.301-18.017 2.921-1.67 5.456-1.229 6.747.808-.683-3.673-3.784-4.98-7.511-2.85-5.934 3.439-11.363 10.317-14.3 18.018-4.975 2.872-8.633 8.167-11.763 14.466-1.881 3.787-2.654 10.58-.588 14.716-1.044-4.088-.243-9.465 1.352-12.672M72.818 178.374c-.374-.075-1.024-.176-1.376-.304-.086-.029-.496 1.672-.582 1.636-1.76 5.273-1.823 10.273-.09 13.606l.007.01c-.99-3.583.099-10.07 2.041-14.948M72.784 148.563c-.392-.51-1.159-.442-1.427-1.072-6.32 8.777-8.663 19.786-5.646 25.957-1.79-6.394 1.24-16.946 7.073-24.885" transform="translate(-998 -100) translate(998 100.832) matrix(-1 0 0 1 585 120.168) translate(147.424 121.636) translate(5.734 4.484)"/>
                            <path fill="#FFC878" d="M202.096 1.466L202.096 5.352 2.892 120.301 2.899 116.414 0.866 115.191 199.979 0.293z" transform="translate(-998 -100) translate(998 100.832) matrix(-1 0 0 1 585 120.168) translate(147.424 121.636) translate(5.734 4.484)"/>
                            <path fill="#FFC878" d="M5.103 280.651L3.368 281.649 0.793 280.151 0.793 115.191 5.103 115.191z" transform="translate(-998 -100) translate(998 100.832) matrix(-1 0 0 1 585 120.168) translate(147.424 121.636) translate(5.734 4.484)"/>
                        </g>
                    </g>
                </g>
            </g>
        </g>
    </g>
</svg>
