<svg width="469" height="473" viewBox="0 0 469 473" fill="none" xmlns="http://www.w3.org/2000/svg">
<g style="mix-blend-mode:multiply" opacity="0.5">
<path d="M354.679 77.9484C367.509 104.455 376.447 33.8826 403.333 19.7747C516.448 -39.5169 519.34 64.3451 608.42 105.761C647.187 123.788 643.448 327.928 623.969 330.275C490.98 346.345 623.611 361.455 579.168 374.935C514.993 394.411 467.672 398.137 436.543 376.701C353.59 319.593 296.127 424.598 310.504 280.573C318.292 202.5 106.64 346.128 98.3966 466.171C96.7271 490.441 68.2383 410.588 42.715 321.052C17.1917 231.516 -5.30165 132.341 4.97658 118.032C24.0962 91.4537 54.637 63.816 132.971 51.3321C290.448 26.2317 339.454 46.5303 354.679 77.9484Z" stroke="url(#paint0_linear)" stroke-width="3" stroke-miterlimit="10"/>
<path d="M6.44893 119.693C24.9022 93.5543 55.2656 66.1471 132.317 53.6658C161.556 48.9135 187.035 45.7421 209.163 43.9591C303.939 36.481 338.414 54.1022 350.979 79.1269C363.951 104.936 372.857 36.3227 399.388 22.6757C510.836 -34.7515 514.736 67.0139 601.838 107.593C614.967 113.757 623.432 141.741 628.284 175.574C632.534 204.81 634.286 238.336 633.855 265.625C633.309 299.8 627.606 328.495 620.113 329.391C490.14 344.642 619.037 359.765 575.389 372.893C512.363 391.835 465.788 395.385 435.045 374.347C353.619 318.471 297.182 420.343 311.027 279.27C313.591 252.898 290.889 252.061 259.66 267.056C200.139 295.683 109.072 382.811 101.94 459.834C99.708 483.797 70.7583 406.267 46.2237 318.768C21.5188 230.549 -3.48539 133.768 6.44893 119.693Z" stroke="url(#paint1_linear)" stroke-width="3" stroke-miterlimit="10"/>
<path d="M7.86753 121.366C25.7082 95.6548 55.8672 68.4833 131.63 55.9777C160.419 51.2031 185.528 47.9933 207.313 46.1666C300.13 38.6574 334.472 55.7469 347.247 80.2835C360.333 105.401 369.23 38.7143 395.379 25.5334C505.133 -30.0241 510.191 69.4195 595.218 109.377C608.288 115.524 616.849 143.713 622.217 177.332C626.87 206.489 629.535 239.555 629.976 265.332C630.501 297.872 624.066 327.521 616.24 328.428C489.275 342.944 614.48 358.016 571.594 370.769C509.718 389.177 463.868 392.584 433.505 371.917C353.6 317.247 298.167 416.019 311.507 277.892C313.974 252.013 291.846 250.978 261.434 265.31C203.494 292.76 114.259 378.158 105.447 453.449C102.683 477.125 73.2462 401.924 49.6949 316.435C25.8137 229.56 -1.70136 135.173 7.86753 121.366Z" stroke="url(#paint2_linear)" stroke-width="3" stroke-miterlimit="10"/>
<path d="M9.31844 123.06C26.5197 97.7821 56.4958 70.8142 130.95 58.3166C159.287 53.5195 184.043 50.2123 205.495 48.3957C296.311 40.6406 330.535 57.4185 343.548 81.4619C356.774 105.881 365.641 41.1542 391.435 28.4342C499.521 -25.2589 505.678 71.9863 588.657 111.177C601.641 117.314 610.331 145.728 616.209 179.106C621.318 208.173 624.864 240.758 626.129 265.06C627.752 295.961 620.585 326.563 612.4 327.485C488.446 341.294 609.927 356.294 567.832 368.668C507.104 386.541 461.974 389.778 432.023 369.504C353.646 316.066 299.217 411.738 312.046 276.529C314.411 251.118 292.83 249.891 263.294 263.574C206.934 289.847 119.512 373.547 109.039 447.074C105.718 470.47 75.8201 397.592 53.2521 314.113C30.114 228.597 0.109689 136.572 9.31844 123.06Z" stroke="url(#paint3_linear)" stroke-width="3" stroke-miterlimit="10"/>
<path d="M10.7371 124.732C27.3205 99.8559 57.119 73.1185 130.263 60.6287C158.15 55.8092 182.562 52.4584 203.639 50.5765C292.486 42.7367 326.561 59.042 339.811 82.592C353.146 106.292 362.014 43.546 387.453 31.2868C493.845 -20.5365 501.101 74.5103 582.063 112.956C594.962 119.082 603.807 147.716 610.174 180.887C615.712 209.868 620.166 241.966 622.282 264.789C625.003 294.05 617.105 325.606 608.555 326.516C487.65 339.666 605.37 354.545 564.042 366.572C504.469 383.938 460.042 387.063 430.488 367.102C353.508 315.089 300.234 407.435 312.537 275.205C314.777 250.292 293.798 248.862 265.079 261.882C210.299 286.977 124.662 368.985 112.556 440.742C108.656 463.891 78.3187 393.304 56.734 311.834C34.409 227.608 1.92066 137.972 10.7371 124.732Z" stroke="url(#paint4_linear)" stroke-width="3" stroke-miterlimit="10"/>
<path d="M12.1879 126.426C28.1318 101.983 57.7528 75.4762 129.609 62.9623C157.046 58.1203 181.082 54.7042 201.848 52.8002C288.699 44.8811 322.672 60.6761 336.138 83.7649C349.587 106.773 358.489 46.029 383.53 34.1555C488.361 -15.5455 496.583 77.0502 575.502 114.756C588.347 120.892 597.31 149.699 604.165 182.661C610.16 211.553 615.489 243.143 618.435 264.518C622.249 292.111 613.624 324.648 604.714 325.574C486.837 338.097 600.817 352.823 560.279 364.47C501.829 381.307 458.121 384.262 429.006 364.688C353.505 313.946 301.279 403.127 313.05 273.848C315.192 249.429 294.772 247.721 266.886 260.157C213.632 283.946 129.785 364.428 116.094 434.378C111.61 457.252 80.8602 388.95 60.2373 309.522C38.7038 226.619 3.71001 139.403 12.1879 126.426Z" stroke="url(#paint5_linear)" stroke-width="3" stroke-miterlimit="10"/>
<path d="M13.6065 128.099C28.9325 104.057 58.3759 77.7804 128.923 65.2744C155.909 60.41 179.597 56.9234 199.997 55.0079C284.879 47.0039 318.703 62.3263 332.406 84.9218C345.942 107.243 354.872 48.4744 379.553 37.0349C482.728 -10.748 492.011 79.6009 568.909 116.535C581.668 122.66 590.786 151.687 598.125 184.414C604.576 213.215 610.781 244.297 614.583 264.22C619.511 290.114 610.133 323.637 600.842 324.61C486.003 336.56 596.227 351.053 556.484 362.347C499.184 378.65 456.2 381.462 427.466 362.259C353.47 312.781 302.548 398.83 313.53 272.469C315.602 248.539 295.692 246.59 268.66 258.411C216.954 281.001 134.822 359.86 119.6 427.993C114.542 450.645 83.3749 384.603 63.7085 307.189C43.0256 225.625 5.5209 140.803 13.6065 128.099Z" stroke="url(#paint6_linear)" stroke-width="3" stroke-miterlimit="10"/>
<path d="M15.052 129.766C29.7654 106.152 59.0044 80.1112 128.264 67.5809C154.804 62.7209 178.143 59.1638 198.174 57.2099C281.054 49.0997 314.729 63.9494 328.701 86.0731C342.346 107.676 351.277 50.8874 375.603 39.9088C477.121 -5.95602 487.445 82.1782 562.348 118.335C575.021 124.449 584.294 153.697 592.09 186.194C598.97 214.91 606.072 245.452 610.709 263.954C616.746 288.122 606.625 322.685 596.975 323.673C485.175 335.049 591.648 349.336 552.694 360.251C496.543 376.019 454.285 378.688 425.957 359.851C353.44 311.643 303.625 394.543 314.043 271.112C316.017 247.675 296.676 245.503 270.466 256.687C220.336 278.072 139.843 355.351 123.139 421.629C117.507 444.059 85.9166 380.249 67.2119 304.878C47.3152 224.608 7.30503 142.208 15.052 129.766Z" stroke="url(#paint7_linear)" stroke-width="3" stroke-miterlimit="10"/>
<path d="M16.476 131.465C30.5714 108.253 59.6061 82.4475 127.583 69.9199C153.672 65.0375 176.636 61.4151 196.35 59.4122C277.267 51.2442 310.782 65.5675 325.001 87.2516C338.734 108.167 347.688 53.3275 371.653 42.7829C471.515 -1.16381 482.905 84.7505 555.76 120.141C568.353 126.271 577.802 155.707 586.06 188.001C593.402 216.654 601.386 246.575 606.841 263.715C614.007 286.125 603.123 321.759 593.113 322.763C484.335 333.625 587.074 347.646 548.883 358.187C493.882 373.421 452.348 375.946 424.401 357.48C353.388 310.537 304.648 390.267 314.512 269.819C316.388 246.876 297.617 244.48 272.23 255.026C223.674 275.207 144.767 350.917 126.634 415.329C120.402 437.544 88.4204 375.987 70.6723 302.631C51.6101 223.619 9.11593 143.607 16.476 131.465Z" stroke="url(#paint8_linear)" stroke-width="3" stroke-miterlimit="10"/>
<path d="M17.9215 133.132C31.399 110.321 60.2346 84.7785 126.897 72.232C152.509 67.3324 175.151 63.6342 194.5 61.6198C273.42 53.3723 306.807 67.1907 321.264 88.3815C335.052 108.589 344.061 55.7191 367.671 45.6354C465.876 3.60681 478.307 87.3064 549.162 121.893C561.695 128.006 571.273 157.668 580.014 189.727C587.813 218.289 596.656 247.622 602.983 263.39C611.243 283.993 599.632 320.748 589.262 321.767C483.539 332.137 582.511 345.87 545.115 356.059C491.268 370.785 450.454 373.14 422.914 355.04C353.407 309.361 305.746 385.949 315.046 268.43C316.825 245.981 298.623 243.36 274.085 253.264C227.103 272.241 149.729 346.392 130.215 408.901C123.356 430.905 91.032 371.564 74.2188 300.255C55.8998 222.603 10.8948 144.985 17.9215 133.132Z" stroke="url(#paint9_linear)" stroke-width="3" stroke-miterlimit="10"/>
<path d="M19.3401 134.804C32.1997 112.395 60.8843 87.2168 126.216 74.5708C151.388 69.7025 173.676 65.9069 192.681 63.8489C269.633 55.5166 302.838 68.8408 317.564 89.5598C331.439 109.08 340.477 58.1859 363.721 48.5093C460.237 8.37734 473.767 89.8785 542.6 123.693C555.048 129.796 564.781 159.678 574.006 191.502C582.26 219.974 591.948 248.637 599.136 263.119C608.483 281.888 596.151 319.791 585.416 320.798C482.747 330.675 577.953 344.121 541.347 353.93C488.65 368.122 448.56 370.334 421.4 352.605C353.372 308.197 306.79 381.641 315.527 267.052C317.208 245.096 299.575 242.251 275.859 251.518C230.447 269.264 154.557 341.893 133.748 402.51C126.267 424.33 93.595 367.179 77.7168 297.917C60.2161 221.582 12.7056 146.385 19.3401 134.804Z" stroke="url(#paint10_linear)" stroke-width="3" stroke-miterlimit="10"/>
<path d="M20.7909 136.498C33.0273 114.463 61.5765 89.8699 125.562 76.9043C150.262 71.9062 172.195 68.1528 190.863 66.0779C265.818 57.6662 298.87 70.4909 313.87 90.7649C327.8 109.577 336.892 60.6527 359.782 51.437C454.641 13.2231 469.211 92.5096 536.023 125.552C548.39 131.671 558.3 161.741 567.981 193.335C576.692 221.717 587.196 249.716 595.3 262.901C605.67 279.794 592.675 318.86 581.56 319.915C481.95 329.326 573.379 342.431 537.541 351.893C485.993 365.551 446.623 367.592 419.875 350.256C353.352 307.112 307.845 377.386 316.023 265.754C317.601 244.265 300.516 241.227 277.649 249.853C233.812 266.393 159.342 337.459 137.271 396.205C129.135 417.82 96.1741 362.874 81.2039 295.664C64.5057 220.566 14.5166 147.784 20.7909 136.498Z" stroke="url(#paint11_linear)" stroke-width="3" stroke-miterlimit="10"/>
<path d="M22.2095 138.171C33.828 116.537 62.1197 91.911 124.876 79.2165C149.146 74.3033 170.715 70.3989 189.034 68.2534C262.026 59.7839 294.858 72.0659 310.16 91.8897C324.15 110.02 333.292 63.0392 355.8 54.2896C449.002 17.9939 464.618 95.0926 529.43 127.331C541.711 133.439 551.771 163.702 561.946 195.115C571.113 223.407 582.392 250.667 591.426 262.635C602.788 277.63 589.168 317.908 577.693 318.978C481.121 327.955 568.8 340.715 533.752 349.797C483.353 362.921 444.707 364.818 418.34 347.853C353.322 305.974 308.895 373.105 316.509 264.402C317.989 243.407 301.473 240.145 279.429 248.134C237.166 263.47 164.041 333.014 140.782 389.846C131.997 411.283 98.7157 358.521 84.6805 293.358C68.8222 219.544 16.2953 149.162 22.2095 138.171Z" stroke="url(#paint12_linear)" stroke-width="3" stroke-miterlimit="10"/>
<path d="M23.6604 139.865C34.6556 118.605 62.7483 94.2419 124.19 81.5285C148.009 76.5929 169.23 72.6179 187.184 70.461C258.179 61.912 290.857 73.6945 306.428 93.0465C320.447 110.474 329.671 65.4576 351.818 57.1421C443.332 22.7429 460.025 97.6753 522.831 129.083C535.059 135.201 545.269 165.658 555.9 196.841C565.529 225.07 577.523 251.575 587.568 262.31C599.809 275.402 585.676 316.896 573.842 317.982C480.336 326.52 564.237 338.939 529.978 347.642C480.734 360.258 442.808 361.985 416.848 345.386C353.336 304.772 309.955 368.738 317.043 263.013C318.426 242.511 302.479 239.026 281.257 246.377C240.569 260.509 168.756 328.51 144.342 383.45C134.887 404.74 101.333 354.125 88.2055 291.015C73.1387 218.523 18.1063 150.562 23.6604 139.865Z" stroke="url(#paint13_linear)" stroke-width="3" stroke-miterlimit="10"/>
<path d="M25.0791 141.537C35.4779 120.646 63.3768 96.5727 123.509 83.8672C146.883 78.936 167.728 74.8958 185.366 72.6899C254.397 64.083 286.856 75.323 302.728 94.2247C316.807 110.97 326.087 67.9244 347.873 60.0428C437.73 27.5618 455.469 100.306 516.276 130.91C528.418 137.017 538.782 167.695 549.897 198.643C559.983 226.781 572.606 252.519 583.727 262.066C596.792 273.264 582.201 315.966 570.007 317.067C479.544 325.198 559.69 337.244 526.226 345.594C478.132 357.676 440.93 359.26 415.35 343.032C353.338 303.655 311.043 364.505 317.566 261.71C318.824 241.707 303.474 237.992 283.101 244.701C243.956 257.607 173.375 324.08 147.886 377.113C137.728 398.235 103.96 349.783 91.7142 288.73C77.4498 217.475 19.8851 151.939 25.0791 141.537Z" stroke="url(#paint14_linear)" stroke-width="3" stroke-miterlimit="10"/>
<path d="M26.5246 143.204C36.327 122.683 64.0054 98.9038 122.849 86.1741C145.773 81.2205 166.269 77.1098 183.537 74.8655C250.572 66.1792 282.849 76.9248 299.018 95.3495C313.099 111.397 322.486 70.3108 343.912 62.8633C432.081 32.2788 450.871 102.862 509.677 132.662C521.739 138.785 532.28 169.651 543.852 200.369C554.393 228.417 567.603 253.453 579.869 261.741C593.652 271.067 578.71 314.954 566.156 316.071C478.763 323.79 555.122 335.441 522.426 343.444C475.481 354.992 439.004 356.432 413.831 340.57C353.324 302.458 312.103 360.138 318.068 260.299C319.229 240.79 304.448 236.851 284.897 242.922C247.359 254.646 177.945 319.549 151.446 370.717C140.585 391.671 106.598 345.355 95.2392 286.387C81.761 216.427 21.6908 153.312 26.5246 143.204Z" stroke="url(#paint15_linear)" stroke-width="3" stroke-miterlimit="10"/>
<path d="M27.9486 144.904C37.1547 124.751 64.6392 101.262 122.169 88.5131C144.641 83.537 164.768 79.3879 181.719 77.0946C246.763 68.3557 278.822 78.5588 295.318 96.5279C309.433 111.899 318.897 72.7509 339.968 65.7643C426.448 37.0763 446.315 105.494 503.116 134.462C515.092 140.575 525.815 171.656 537.843 202.144C548.868 230.096 562.583 254.447 576.022 261.47C590.453 268.994 575.229 313.997 562.284 315.107C477.94 322.447 550.537 333.698 518.631 341.321C472.835 352.334 437.078 353.605 412.318 338.136C353.316 301.288 313.148 355.83 318.548 258.921C319.606 239.878 305.394 235.715 286.677 241.203C250.708 251.695 182.414 315.066 154.952 364.332C143.357 385.096 109.188 340.964 98.7104 284.054C86.0722 215.378 23.4749 154.717 27.9486 144.904Z" stroke="url(#paint16_linear)" stroke-width="3" stroke-miterlimit="10"/>
<path d="M29.394 146.571C37.9715 126.766 65.2623 103.566 121.509 90.8197C143.531 85.8212 163.309 81.6016 179.895 79.2968C242.976 70.5 274.793 80.1926 291.613 97.6793C305.734 112.38 315.302 75.164 336.018 68.6382C420.836 41.8415 441.732 108.13 496.555 136.262C508.45 142.391 519.35 173.66 531.813 203.95C543.3 231.839 557.478 255.568 572.18 261.225C587.247 267.033 571.727 313.071 558.449 314.192C477.159 321.178 545.99 332.002 514.873 339.246C470.227 349.725 435.195 350.852 410.814 335.754C353.313 300.145 314.197 351.549 319.071 257.618C320.032 239.069 306.389 234.681 288.494 239.532C254.099 248.82 186.86 310.615 158.501 358.021C146.176 378.623 111.843 336.617 102.224 281.796C90.3832 214.33 25.2483 156.068 29.394 146.571Z" stroke="url(#paint17_linear)" stroke-width="3" stroke-miterlimit="10"/>
<path d="M30.8127 148.243C38.7885 128.78 65.864 105.902 120.823 93.1316C142.394 88.1107 161.829 83.8474 178.071 81.4989C239.167 72.6764 270.76 81.7996 287.908 98.8307C302.009 112.865 311.707 77.577 332.063 71.4853C415.192 46.5852 437.144 110.74 489.962 138.041C501.798 144.153 512.853 175.643 525.773 205.703C537.743 233.496 552.372 256.69 568.301 260.932C583.962 265.088 568.214 312.092 554.576 313.228C476.362 319.829 541.406 330.258 511.084 337.15C467.592 347.121 433.306 348.073 409.306 333.346C353.337 298.996 315.268 347.235 319.584 256.26C320.447 238.205 307.373 233.593 290.3 237.808C257.481 245.891 191.237 306.094 162.013 351.662C148.926 372.08 114.465 332.247 105.701 279.49C94.7212 213.276 27.0539 157.441 30.8127 148.243Z" stroke="url(#paint18_linear)" stroke-width="3" stroke-miterlimit="10"/>
<path d="M32.2367 149.942C39.6055 130.795 66.4978 108.26 120.115 95.4759C141.241 90.4594 160.295 86.104 176.194 83.7118C235.299 74.8367 266.679 83.4442 284.15 99.9929C298.257 113.357 308.059 80.0008 328.059 74.37C409.499 51.3664 432.508 113.387 483.347 139.852C495.103 145.98 506.334 177.658 519.711 207.488C532.137 235.191 547.24 257.956 564.427 260.666C580.698 263.251 564.701 311.113 550.709 312.291C475.549 318.539 536.853 328.536 507.267 335.059C464.898 344.502 431.358 345.278 407.744 330.949C353.275 297.836 316.264 342.965 320.043 254.914C320.808 237.352 308.304 232.516 292.053 236.094C260.835 242.967 195.529 301.562 165.524 345.304C151.649 365.543 117.108 327.846 109.177 277.184C99.027 212.201 28.8327 158.819 32.2367 149.942Z" stroke="url(#paint19_linear)" stroke-width="3" stroke-miterlimit="10"/>
<path d="M33.6822 151.609C40.4439 132.778 67.121 110.564 119.461 97.8096C140.137 92.7706 158.847 88.3715 174.403 85.9357C231.517 77.008 262.656 85.105 280.477 101.166C294.564 113.864 304.496 82.4356 324.141 77.2656C403.893 56.1587 427.957 116.045 476.813 141.647C488.482 147.764 499.896 179.657 513.73 209.258C526.639 236.865 542.225 259.255 560.607 260.39C577.525 261.451 561.247 310.15 546.896 311.343C474.79 317.238 532.322 326.782 503.531 332.952C462.312 341.861 429.497 342.493 406.289 328.53C353.347 296.65 317.362 338.646 320.609 253.547C321.244 236.457 309.342 231.418 293.94 234.353C264.292 239.996 199.89 296.96 169.143 338.924C154.448 358.963 119.886 323.418 112.761 274.857C103.36 211.121 30.6062 160.17 33.6822 151.609Z" stroke="url(#paint20_linear)" stroke-width="3" stroke-miterlimit="10"/>
<path d="M35.1062 153.309C41.261 134.792 67.7549 112.922 118.781 100.149C139.005 95.0871 157.345 90.6497 172.558 88.1702C227.686 79.2168 258.553 86.7817 276.75 102.35C290.791 114.388 300.885 84.9078 320.165 80.145C398.227 60.9346 423.348 118.687 470.198 143.458C481.787 149.591 493.378 181.672 507.673 211.07C521.038 238.587 537.173 260.646 556.739 260.151C574.367 259.732 557.745 309.225 543.007 310.439C473.96 316.007 527.722 325.098 499.72 330.889C459.65 339.262 427.56 339.752 404.727 326.133C353.285 295.491 318.353 334.348 321.041 252.206C321.579 235.61 310.24 230.32 295.666 232.645C267.619 237.078 204.058 292.369 172.601 332.576C157.085 352.414 122.503 319.022 116.179 272.535C107.719 210.035 32.3797 161.521 35.1062 153.309Z" stroke="url(#paint21_linear)" stroke-width="3" stroke-miterlimit="10"/>
<path d="M36.5517 154.976C42.0941 136.748 68.3781 115.226 118.121 102.455C137.895 97.3714 155.886 92.8635 170.761 90.3671C223.931 81.3827 254.498 88.4209 273.078 103.523C287.076 114.927 297.317 87.3157 316.22 83.0459C392.589 65.7053 418.776 121.377 463.642 145.285C475.146 151.407 486.94 183.671 501.67 212.871C515.524 240.32 532.231 257.522 552.902 259.933C571.229 262.055 554.28 308.348 539.172 309.523C473.185 314.766 523.175 323.402 495.963 328.814C457.042 336.653 425.671 336.973 403.251 323.747C353.335 294.337 319.43 330.062 321.591 250.897C322.031 234.795 311.289 229.275 297.51 230.969C271.065 234.192 208.28 287.767 176.177 326.261C159.808 345.877 125.265 314.654 119.72 270.272C112.073 208.923 34.1532 162.872 36.5517 154.976Z" stroke="url(#paint22_linear)" stroke-width="3" stroke-miterlimit="10"/>
<path d="M37.9704 156.648C42.9005 138.709 69.0066 117.557 117.435 104.767C136.758 99.6609 154.278 94.4649 168.905 92.5478C220.428 85.8143 250.385 90.0439 269.341 104.653C283.292 115.397 293.775 90.1369 312.233 85.8715C386.54 68.6875 414.134 123.997 457.038 147.01C468.461 153.148 480.432 185.6 495.619 214.571C509.956 241.923 526.899 259.19 549.039 259.581C568.464 259.923 550.784 307.31 535.316 308.501C472.415 313.411 518.606 321.6 492.162 326.664C454.397 333.996 423.772 334.14 401.705 321.29C353.316 293.113 320.442 325.732 322.066 249.492C322.409 233.883 312.235 228.139 299.279 229.196C274.435 231.209 212.427 283.068 179.705 319.843C162.478 339.21 127.978 310.183 123.213 267.906C116.428 207.81 35.8998 164.228 37.9704 156.648Z" stroke="url(#paint23_linear)" stroke-width="3" stroke-miterlimit="10"/>
<path d="M39.4211 158.342C43.7336 140.665 69.6351 119.888 116.754 107.106C135.627 101.977 152.804 96.7377 167.087 94.7769C216.652 88.0124 246.314 91.7422 265.641 105.831C279.551 115.942 290.186 92.577 308.288 88.7724C380.928 73.4528 409.535 126.693 450.483 148.837C461.825 154.991 473.972 187.632 489.616 216.372C504.436 243.629 521.755 260.961 545.198 259.337C565.667 257.91 547.308 306.379 531.481 307.585C471.644 312.197 514.059 319.905 488.405 324.589C451.789 331.387 421.883 331.36 400.229 318.904C353.367 291.959 321.491 321.451 322.611 248.156C322.85 233.014 313.278 227.068 301.118 227.493C277.875 228.296 216.568 278.343 183.243 313.479C165.126 332.576 130.756 305.755 126.716 265.595C120.782 206.698 37.668 165.553 39.4211 158.342Z" stroke="url(#paint24_linear)" stroke-width="3" stroke-miterlimit="10"/>
<path d="M40.8398 160.015C41.3371 142.227 70.2367 122.224 116.068 109.418C134.49 104.267 151.291 98.962 165.236 96.9843C212.816 90.1941 242.157 93.4293 261.909 106.988C275.756 116.497 286.479 94.5657 304.311 91.6516C375.597 79.9201 404.909 129.393 443.868 150.647C455.124 156.791 467.481 189.641 483.559 218.184C498.862 245.346 517.451 266.277 541.329 259.098C562.125 252.835 543.806 305.454 527.592 306.68C470.815 310.966 509.453 318.193 484.594 322.525C449.127 328.789 419.973 328.613 398.672 316.533C353.337 290.821 322.487 317.18 323.075 246.837C323.19 232.194 314.214 226.018 302.903 225.8C281.283 225.362 220.651 273.601 186.755 307.12C167.742 325.92 133.502 301.305 130.193 263.289C125.19 205.575 38.1972 166.536 40.8398 160.015Z" stroke="url(#paint25_linear)" stroke-width="3" stroke-miterlimit="10"/>
<path d="M42.2853 161.682C42.0415 144.236 70.8599 124.528 115.409 111.725C133.38 106.551 149.811 101.208 163.44 99.1814C209.06 92.3602 238.086 95.1277 258.231 108.134C272.009 117.015 282.884 96.979 300.383 94.4937C369.975 84.6319 400.327 132.03 437.323 152.389C448.499 158.548 461.027 191.56 477.567 219.9C493.353 246.966 512.614 267.625 537.498 258.768C559.15 251.052 540.342 304.437 523.768 305.679C470.056 309.665 504.917 316.412 480.847 320.365C446.53 326.094 418.095 325.748 397.207 314.061C353.399 289.581 323.548 312.813 323.636 245.443C323.653 231.293 315.274 224.887 304.758 224.038C284.745 222.417 224.803 268.79 190.347 300.746C170.406 319.227 136.36 296.862 133.75 260.967C129.592 204.425 39.9439 167.893 42.2853 161.682Z" stroke="url(#paint26_linear)" stroke-width="3" stroke-miterlimit="10"/>
<path d="M43.7093 163.381C42.7242 146.277 71.4884 126.859 114.728 114.064C132.248 108.868 148.336 103.481 161.589 101.389C205.251 94.5365 233.934 96.8417 254.499 109.291C268.214 117.57 279.262 99.3973 296.406 97.3728C364.304 89.3808 395.674 134.736 430.735 154.194C441.831 160.369 454.562 193.564 471.532 221.679C487.801 248.65 507.792 269.053 533.651 258.496C556.208 249.29 536.861 303.48 519.928 304.737C469.28 308.423 500.365 314.69 477.057 318.268C443.895 323.49 416.206 322.969 395.672 311.658C353.412 288.379 324.539 308.516 324.095 244.096C324.015 230.44 316.236 223.832 306.511 222.324C288.132 219.515 228.816 263.978 193.832 294.392C172.958 312.528 139.138 292.434 137.199 258.666C133.995 203.275 41.6905 169.249 43.7093 163.381Z" stroke="url(#paint27_linear)" stroke-width="3" stroke-miterlimit="10"/>
<path d="M45.1547 165.048C43.4337 148.313 72.1169 129.19 114.069 116.371C131.138 111.152 146.856 105.727 159.792 103.586C201.464 96.681 229.842 98.5722 250.821 110.437C264.451 118.148 275.689 101.778 292.478 100.215C358.676 94.0657 391.097 137.399 424.169 155.968C435.184 162.159 448.118 195.537 465.491 223.433C482.244 250.308 502.954 270.401 529.772 258.203C553.233 247.507 533.353 302.527 516.05 303.746C468.467 307.134 495.775 312.919 473.262 316.146C441.249 320.833 414.28 320.142 394.158 309.223C353.419 287.15 325.551 304.186 324.602 242.712C324.392 229.529 317.269 222.707 308.312 220.573C291.593 216.57 232.893 259.07 197.365 288.001C175.553 305.765 142.013 287.931 140.697 256.328C138.451 202.114 43.4155 170.638 45.1547 165.048Z" stroke="url(#paint28_linear)" stroke-width="3" stroke-miterlimit="10"/>
<path d="M46.5786 166.747C44.1165 150.354 72.7185 131.526 113.366 118.742C129.985 113.501 145.465 108.708 157.926 105.852C197.23 96.849 225.658 100.404 247.073 111.653C260.619 118.794 272.051 104.256 288.485 103.153C352.957 98.8521 386.433 140.191 417.564 157.832C428.499 164.039 441.605 197.578 459.445 225.298C476.681 252.078 498.116 271.888 525.914 258.018C550.307 245.826 529.835 301.661 512.199 302.89C467.686 306.005 491.211 311.283 469.489 314.13C438.625 318.283 412.402 317.416 392.638 306.901C353.449 286.028 326.557 299.969 325.103 241.441C324.796 228.751 318.274 221.727 310.107 218.934C295.028 213.77 236.96 254.248 200.892 281.723C178.105 299.066 144.887 283.568 144.19 254.103C142.934 200.948 45.1621 171.994 46.5786 166.747Z" stroke="url(#paint29_linear)" stroke-width="3" stroke-miterlimit="10"/>
<path d="M48.0242 168.414C44.8208 152.363 73.3685 133.825 112.707 121.048C128.875 115.785 144.012 110.949 156.124 108.022C193.453 99.047 221.538 102.14 243.389 112.772C256.851 119.344 268.473 106.61 284.556 105.995C347.324 103.51 381.829 142.86 411.02 159.573C421.873 165.796 435.183 199.519 453.453 227.014C471.172 253.698 493.354 273.193 522.084 257.688C547.407 244 526.376 300.671 508.348 301.894C466.9 304.709 486.643 309.48 465.715 311.975C436.001 315.593 410.524 314.551 391.146 304.434C353.505 284.761 327.559 295.586 325.632 240.025C325.2 227.834 319.307 220.602 311.93 217.151C298.495 210.852 241.043 249.227 204.447 275.3C180.705 292.19 147.842 279.049 147.71 251.732C147.471 199.771 46.9088 173.35 48.0242 168.414Z" stroke="url(#paint30_linear)" stroke-width="3" stroke-miterlimit="10"/>
<path d="M49.4428 170.087C45.5035 154.404 73.9649 136.135 112.021 123.36C127.738 118.074 142.505 113.2 154.273 110.23C189.633 101.309 217.376 103.94 239.658 113.929C253.034 119.932 264.851 109.028 280.574 108.847C341.637 108.179 377.177 145.566 404.399 161.357C415.173 167.596 428.681 201.475 447.386 228.772C465.609 255.328 488.516 274.54 518.204 257.395C544.459 242.212 522.868 299.719 504.476 300.93C466.097 303.473 482.058 307.737 461.893 309.857C433.328 312.941 408.571 311.729 389.579 302.01C353.486 283.537 328.518 291.267 326.091 238.679C325.556 226.954 320.275 219.573 313.71 215.431C301.924 208.025 245.104 244.238 207.953 268.915C183.225 285.33 150.776 274.562 151.181 249.399C152.034 198.59 48.6338 174.739 49.4428 170.087Z" stroke="url(#paint31_linear)" stroke-width="3" stroke-miterlimit="10"/>
<path d="M50.8936 171.781C46.2131 156.44 74.5934 138.466 111.367 125.694C126.633 120.386 141.062 115.494 152.455 112.459C185.84 103.566 213.224 105.794 235.958 115.107C249.282 120.563 261.256 111.442 276.603 111.754C335.988 112.895 372.508 148.331 397.817 163.19C408.483 169.45 422.221 203.506 441.356 230.579C460.063 257.039 483.743 275.931 514.336 257.156C541.544 240.445 519.371 298.82 500.614 300.02C465.305 302.29 477.484 306.047 458.114 307.814C430.704 310.391 406.688 308.976 388.081 299.656C353.531 282.356 329.492 287.028 326.587 237.381C325.928 226.156 321.286 218.62 315.5 213.766C305.364 205.252 249.171 239.276 211.475 262.61C185.782 278.518 153.752 270.151 154.668 247.147C156.679 197.392 50.3805 176.095 50.8936 171.781Z" stroke="url(#paint32_linear)" stroke-width="3" stroke-miterlimit="10"/>
<path d="M52.3123 173.453C46.8906 158.455 75.2166 140.77 110.68 128.006C125.496 122.675 139.555 117.746 150.632 114.661C182.052 105.85 209.072 107.648 232.258 116.286C245.503 121.199 257.667 113.882 272.653 114.628C330.333 117.586 367.893 151.086 391.251 164.963C401.841 171.266 415.773 205.451 435.348 232.354C454.538 258.718 478.965 277.295 510.489 256.885C538.655 238.673 515.896 297.89 496.774 299.078C464.535 301.076 472.932 304.325 454.352 305.713C428.064 307.761 404.821 306.165 386.573 297.248C353.571 281.149 330.477 282.704 327.1 236.024C326.316 225.298 322.286 217.613 317.307 212.041C308.751 202.49 253.303 234.218 215.014 256.246C188.323 271.626 156.799 265.67 158.171 244.836C161.409 196.205 52.1272 177.452 52.3123 173.453Z" stroke="url(#paint33_linear)" stroke-width="3" stroke-miterlimit="10"/>
<path d="M53.7579 175.12C47.5681 160.469 75.8399 143.074 109.994 130.318C124.36 124.965 138.08 120.018 148.776 116.842C178.227 108.086 204.894 109.507 228.521 117.416C241.692 121.813 254.034 116.246 268.671 117.48C324.668 122.222 363.214 153.797 384.657 166.742C395.141 173.066 409.303 207.429 429.307 234.107C449.007 260.371 474.175 278.605 506.637 256.586C535.756 236.847 512.388 296.938 492.923 298.082C463.754 299.807 468.369 302.549 450.578 303.558C425.44 305.071 402.965 303.268 385.081 294.781C353.649 279.85 331.458 278.353 327.628 234.608C326.742 224.348 323.27 216.525 319.129 210.258C312.148 199.641 257.44 229.047 218.568 249.823C190.924 264.611 159.893 261.152 161.691 242.465C166.257 195.051 53.8523 178.84 53.7579 175.12Z" stroke="url(#paint34_linear)" stroke-width="3" stroke-miterlimit="10"/>
<path d="M55.1818 176.82C50.6889 161.582 76.4362 145.383 109.313 132.657C123.228 127.281 136.611 122.318 146.958 119.071C174.477 110.418 200.758 111.441 224.822 118.594C237.923 122.503 250.439 118.66 264.726 120.381C319.013 126.912 358.577 156.584 378.075 168.574C388.456 174.947 402.838 209.433 423.278 235.913C443.455 262.055 469.397 279.969 502.768 256.347C532.862 235.048 508.897 296.066 489.034 297.177C462.909 298.635 463.79 300.832 446.74 301.499C422.751 302.478 401.023 300.499 383.524 292.41C353.63 278.626 332.373 274.098 328.098 233.315C327.087 223.555 324.173 215.593 320.893 208.597C315.432 196.927 261.566 223.962 222.064 243.523C193.433 257.697 162.988 256.773 165.151 240.218C171.244 193.896 56.1626 180.085 55.1818 176.82Z" stroke="url(#paint35_linear)" stroke-width="3" stroke-miterlimit="10"/>
<path d="M56.6273 178.487C50.9262 163.627 77.0594 147.687 108.654 134.964C122.113 129.539 135.141 124.618 145.134 121.273C170.694 112.729 196.622 113.375 221.117 119.745C234.171 123.134 246.839 121.046 260.771 123.228C313.401 131.538 353.903 159.322 371.508 170.348C381.788 176.768 396.389 211.379 417.264 237.661C437.952 263.702 464.634 281.274 498.943 256.044C529.989 233.217 505.453 295.157 485.215 296.203C462.16 297.388 459.259 299.078 442.999 299.365C420.16 299.81 399.172 297.629 382.037 289.97C353.713 277.354 333.326 269.752 328.632 231.926C327.492 222.638 325.136 214.538 322.748 206.835C318.77 194.062 265.783 218.775 225.65 237.122C196.055 250.65 166.2 252.287 168.703 237.869C176.468 192.807 57.7429 181.447 56.6273 178.487Z" stroke="url(#paint36_linear)" stroke-width="3" stroke-miterlimit="10"/>
<path d="M58.0512 180.186C51.029 165.839 77.6451 149.943 107.973 137.303C120.949 131.834 133.677 126.944 143.316 123.503C166.944 115.061 192.497 115.363 217.417 120.924C230.402 123.823 243.271 123.454 256.826 126.129C307.768 136.196 349.239 162.114 364.947 172.148C375.103 178.649 389.994 213.314 411.256 239.436C432.469 265.316 459.872 282.579 495.096 255.773C527.122 231.412 501.962 294.285 481.375 295.261C461.395 296.2 454.707 297.356 439.241 297.291C417.557 297.228 397.326 294.785 380.561 287.583C353.796 276.082 334.268 265.492 329.177 230.591C327.885 221.806 326.077 213.515 324.586 205.132C322.092 191.257 270.028 213.583 229.221 230.779C198.656 243.634 169.466 247.93 172.239 235.579C182.023 191.848 59.3499 182.803 58.0512 180.186Z" stroke="url(#paint37_linear)" stroke-width="3" stroke-miterlimit="10"/>
<path d="M59.4968 181.853C51.0674 168.147 78.2737 152.274 107.319 139.636C119.844 134.145 132.239 129.265 141.492 125.705C163.194 117.394 188.399 117.346 213.712 122.075C226.661 124.508 239.666 125.813 252.876 129.003C302.157 140.821 344.576 164.906 358.359 173.954C368.392 180.534 383.502 215.323 405.199 241.248C426.896 267.033 455.066 283.948 491.227 255.533C524.201 229.619 498.459 293.499 477.514 294.351C460.603 295.018 450.133 295.666 435.457 295.221C414.922 294.624 395.459 291.974 379.031 285.208C353.858 274.842 335.157 261.243 329.641 229.271C328.225 220.986 326.965 212.502 326.344 203.445C325.323 188.413 274.245 208.395 232.711 224.453C201.203 236.629 172.684 243.61 175.694 233.305C188.008 191.082 60.9409 184.218 59.4968 181.853Z" stroke="url(#paint38_linear)" stroke-width="3" stroke-miterlimit="10"/>
<path d="M351.766 175.732C361.626 182.431 377.005 217.306 399.158 243.001C421.312 268.696 450.299 285.226 487.348 255.241C521.296 227.766 494.962 292.74 473.641 293.387C404.381 295.482 325.58 289.672 328.124 201.726C328.955 173.075 171.764 250.238 179.165 230.973C194.658 190.715 62.5371 185.66 60.9154 183.526C46.711 165.019 110.372 139.981 139.642 127.912C206.302 100.411 330.283 161.177 351.766 175.732Z" stroke="url(#paint39_linear)" stroke-width="3" stroke-miterlimit="10"/>
</g>
<defs>
<linearGradient id="paint0_linear" x1="73.5273" y1="265.228" x2="533.57" y2="8.65285" gradientUnits="userSpaceOnUse">
<stop offset="0.116722" stop-color="white"/>
<stop offset="0.344845" stop-color="#FFDEB8"/>
<stop offset="0.609334" stop-color="#FFA53A"/>
<stop offset="0.823228" stop-color="#FF5107"/>
</linearGradient>
<linearGradient id="paint1_linear" x1="73.5273" y1="265.228" x2="533.57" y2="8.65285" gradientUnits="userSpaceOnUse">
<stop offset="0.116722" stop-color="white"/>
<stop offset="0.344845" stop-color="#FFDEB8"/>
<stop offset="0.609334" stop-color="#FFA53A"/>
<stop offset="0.823228" stop-color="#FF5107"/>
</linearGradient>
<linearGradient id="paint2_linear" x1="73.5273" y1="265.228" x2="533.57" y2="8.65285" gradientUnits="userSpaceOnUse">
<stop offset="0.116722" stop-color="white"/>
<stop offset="0.344845" stop-color="#FFDEB8"/>
<stop offset="0.609334" stop-color="#FFA53A"/>
<stop offset="0.823228" stop-color="#FF5107"/>
</linearGradient>
<linearGradient id="paint3_linear" x1="73.5273" y1="265.228" x2="533.57" y2="8.65285" gradientUnits="userSpaceOnUse">
<stop offset="0.116722" stop-color="white"/>
<stop offset="0.344845" stop-color="#FFDEB8"/>
<stop offset="0.609334" stop-color="#FFA53A"/>
<stop offset="0.823228" stop-color="#FF5107"/>
</linearGradient>
<linearGradient id="paint4_linear" x1="73.5273" y1="265.228" x2="533.57" y2="8.65285" gradientUnits="userSpaceOnUse">
<stop offset="0.116722" stop-color="white"/>
<stop offset="0.344845" stop-color="#FFDEB8"/>
<stop offset="0.609334" stop-color="#FFA53A"/>
<stop offset="0.823228" stop-color="#FF5107"/>
</linearGradient>
<linearGradient id="paint5_linear" x1="73.5273" y1="265.228" x2="533.57" y2="8.65285" gradientUnits="userSpaceOnUse">
<stop offset="0.116722" stop-color="white"/>
<stop offset="0.344845" stop-color="#FFDEB8"/>
<stop offset="0.609334" stop-color="#FFA53A"/>
<stop offset="0.823228" stop-color="#FF5107"/>
</linearGradient>
<linearGradient id="paint6_linear" x1="73.5273" y1="265.228" x2="533.57" y2="8.65285" gradientUnits="userSpaceOnUse">
<stop offset="0.116722" stop-color="white"/>
<stop offset="0.344845" stop-color="#FFDEB8"/>
<stop offset="0.609334" stop-color="#FFA53A"/>
<stop offset="0.823228" stop-color="#FF5107"/>
</linearGradient>
<linearGradient id="paint7_linear" x1="73.5273" y1="265.228" x2="533.57" y2="8.65285" gradientUnits="userSpaceOnUse">
<stop offset="0.116722" stop-color="white"/>
<stop offset="0.344845" stop-color="#FFDEB8"/>
<stop offset="0.609334" stop-color="#FFA53A"/>
<stop offset="0.823228" stop-color="#FF5107"/>
</linearGradient>
<linearGradient id="paint8_linear" x1="73.5273" y1="265.228" x2="533.57" y2="8.65285" gradientUnits="userSpaceOnUse">
<stop offset="0.116722" stop-color="white"/>
<stop offset="0.344845" stop-color="#FFDEB8"/>
<stop offset="0.609334" stop-color="#FFA53A"/>
<stop offset="0.823228" stop-color="#FF5107"/>
</linearGradient>
<linearGradient id="paint9_linear" x1="73.5273" y1="265.228" x2="533.57" y2="8.65285" gradientUnits="userSpaceOnUse">
<stop offset="0.116722" stop-color="white"/>
<stop offset="0.344845" stop-color="#FFDEB8"/>
<stop offset="0.609334" stop-color="#FFA53A"/>
<stop offset="0.823228" stop-color="#FF5107"/>
</linearGradient>
<linearGradient id="paint10_linear" x1="73.5273" y1="265.228" x2="533.57" y2="8.65285" gradientUnits="userSpaceOnUse">
<stop offset="0.116722" stop-color="white"/>
<stop offset="0.344845" stop-color="#FFDEB8"/>
<stop offset="0.609334" stop-color="#FFA53A"/>
<stop offset="0.823228" stop-color="#FF5107"/>
</linearGradient>
<linearGradient id="paint11_linear" x1="73.5273" y1="265.228" x2="533.57" y2="8.65285" gradientUnits="userSpaceOnUse">
<stop offset="0.116722" stop-color="white"/>
<stop offset="0.344845" stop-color="#FFDEB8"/>
<stop offset="0.609334" stop-color="#FFA53A"/>
<stop offset="0.823228" stop-color="#FF5107"/>
</linearGradient>
<linearGradient id="paint12_linear" x1="73.5273" y1="265.228" x2="533.57" y2="8.65285" gradientUnits="userSpaceOnUse">
<stop offset="0.116722" stop-color="white"/>
<stop offset="0.344845" stop-color="#FFDEB8"/>
<stop offset="0.609334" stop-color="#FFA53A"/>
<stop offset="0.823228" stop-color="#FF5107"/>
</linearGradient>
<linearGradient id="paint13_linear" x1="73.5273" y1="265.228" x2="533.57" y2="8.65285" gradientUnits="userSpaceOnUse">
<stop offset="0.116722" stop-color="white"/>
<stop offset="0.344845" stop-color="#FFDEB8"/>
<stop offset="0.609334" stop-color="#FFA53A"/>
<stop offset="0.823228" stop-color="#FF5107"/>
</linearGradient>
<linearGradient id="paint14_linear" x1="73.5273" y1="265.228" x2="533.57" y2="8.65285" gradientUnits="userSpaceOnUse">
<stop offset="0.116722" stop-color="white"/>
<stop offset="0.344845" stop-color="#FFDEB8"/>
<stop offset="0.609334" stop-color="#FFA53A"/>
<stop offset="0.823228" stop-color="#FF5107"/>
</linearGradient>
<linearGradient id="paint15_linear" x1="73.5273" y1="265.228" x2="533.57" y2="8.65285" gradientUnits="userSpaceOnUse">
<stop offset="0.116722" stop-color="white"/>
<stop offset="0.344845" stop-color="#FFDEB8"/>
<stop offset="0.609334" stop-color="#FFA53A"/>
<stop offset="0.823228" stop-color="#FF5107"/>
</linearGradient>
<linearGradient id="paint16_linear" x1="73.5273" y1="265.228" x2="533.57" y2="8.65285" gradientUnits="userSpaceOnUse">
<stop offset="0.116722" stop-color="white"/>
<stop offset="0.344845" stop-color="#FFDEB8"/>
<stop offset="0.609334" stop-color="#FFA53A"/>
<stop offset="0.823228" stop-color="#FF5107"/>
</linearGradient>
<linearGradient id="paint17_linear" x1="73.5273" y1="265.228" x2="533.57" y2="8.65285" gradientUnits="userSpaceOnUse">
<stop offset="0.116722" stop-color="white"/>
<stop offset="0.344845" stop-color="#FFDEB8"/>
<stop offset="0.609334" stop-color="#FFA53A"/>
<stop offset="0.823228" stop-color="#FF5107"/>
</linearGradient>
<linearGradient id="paint18_linear" x1="73.5273" y1="265.228" x2="533.57" y2="8.65285" gradientUnits="userSpaceOnUse">
<stop offset="0.116722" stop-color="white"/>
<stop offset="0.344845" stop-color="#FFDEB8"/>
<stop offset="0.609334" stop-color="#FFA53A"/>
<stop offset="0.823228" stop-color="#FF5107"/>
</linearGradient>
<linearGradient id="paint19_linear" x1="73.5273" y1="265.228" x2="533.57" y2="8.65285" gradientUnits="userSpaceOnUse">
<stop offset="0.116722" stop-color="white"/>
<stop offset="0.344845" stop-color="#FFDEB8"/>
<stop offset="0.609334" stop-color="#FFA53A"/>
<stop offset="0.823228" stop-color="#FF5107"/>
</linearGradient>
<linearGradient id="paint20_linear" x1="73.5273" y1="265.228" x2="533.57" y2="8.65285" gradientUnits="userSpaceOnUse">
<stop offset="0.116722" stop-color="white"/>
<stop offset="0.344845" stop-color="#FFDEB8"/>
<stop offset="0.609334" stop-color="#FFA53A"/>
<stop offset="0.823228" stop-color="#FF5107"/>
</linearGradient>
<linearGradient id="paint21_linear" x1="73.5273" y1="265.228" x2="533.57" y2="8.65285" gradientUnits="userSpaceOnUse">
<stop offset="0.116722" stop-color="white"/>
<stop offset="0.344845" stop-color="#FFDEB8"/>
<stop offset="0.609334" stop-color="#FFA53A"/>
<stop offset="0.823228" stop-color="#FF5107"/>
</linearGradient>
<linearGradient id="paint22_linear" x1="73.5273" y1="265.228" x2="533.57" y2="8.65285" gradientUnits="userSpaceOnUse">
<stop offset="0.116722" stop-color="white"/>
<stop offset="0.344845" stop-color="#FFDEB8"/>
<stop offset="0.609334" stop-color="#FFA53A"/>
<stop offset="0.823228" stop-color="#FF5107"/>
</linearGradient>
<linearGradient id="paint23_linear" x1="73.5273" y1="265.228" x2="533.57" y2="8.65285" gradientUnits="userSpaceOnUse">
<stop offset="0.116722" stop-color="white"/>
<stop offset="0.344845" stop-color="#FFDEB8"/>
<stop offset="0.609334" stop-color="#FFA53A"/>
<stop offset="0.823228" stop-color="#FF5107"/>
</linearGradient>
<linearGradient id="paint24_linear" x1="73.5273" y1="265.228" x2="533.57" y2="8.65285" gradientUnits="userSpaceOnUse">
<stop offset="0.116722" stop-color="white"/>
<stop offset="0.344845" stop-color="#FFDEB8"/>
<stop offset="0.609334" stop-color="#FFA53A"/>
<stop offset="0.823228" stop-color="#FF5107"/>
</linearGradient>
<linearGradient id="paint25_linear" x1="73.5273" y1="265.228" x2="533.57" y2="8.65285" gradientUnits="userSpaceOnUse">
<stop offset="0.116722" stop-color="white"/>
<stop offset="0.344845" stop-color="#FFDEB8"/>
<stop offset="0.609334" stop-color="#FFA53A"/>
<stop offset="0.823228" stop-color="#FF5107"/>
</linearGradient>
<linearGradient id="paint26_linear" x1="73.5273" y1="265.228" x2="533.57" y2="8.65285" gradientUnits="userSpaceOnUse">
<stop offset="0.116722" stop-color="white"/>
<stop offset="0.344845" stop-color="#FFDEB8"/>
<stop offset="0.609334" stop-color="#FFA53A"/>
<stop offset="0.823228" stop-color="#FF5107"/>
</linearGradient>
<linearGradient id="paint27_linear" x1="73.5273" y1="265.228" x2="533.57" y2="8.65285" gradientUnits="userSpaceOnUse">
<stop offset="0.116722" stop-color="white"/>
<stop offset="0.344845" stop-color="#FFDEB8"/>
<stop offset="0.609334" stop-color="#FFA53A"/>
<stop offset="0.823228" stop-color="#FF5107"/>
</linearGradient>
<linearGradient id="paint28_linear" x1="73.5273" y1="265.228" x2="533.57" y2="8.65285" gradientUnits="userSpaceOnUse">
<stop offset="0.116722" stop-color="white"/>
<stop offset="0.344845" stop-color="#FFDEB8"/>
<stop offset="0.609334" stop-color="#FFA53A"/>
<stop offset="0.823228" stop-color="#FF5107"/>
</linearGradient>
<linearGradient id="paint29_linear" x1="73.5273" y1="265.228" x2="533.57" y2="8.65285" gradientUnits="userSpaceOnUse">
<stop offset="0.116722" stop-color="white"/>
<stop offset="0.344845" stop-color="#FFDEB8"/>
<stop offset="0.609334" stop-color="#FFA53A"/>
<stop offset="0.823228" stop-color="#FF5107"/>
</linearGradient>
<linearGradient id="paint30_linear" x1="73.5273" y1="265.228" x2="533.57" y2="8.65285" gradientUnits="userSpaceOnUse">
<stop offset="0.116722" stop-color="white"/>
<stop offset="0.344845" stop-color="#FFDEB8"/>
<stop offset="0.609334" stop-color="#FFA53A"/>
<stop offset="0.823228" stop-color="#FF5107"/>
</linearGradient>
<linearGradient id="paint31_linear" x1="73.5273" y1="265.228" x2="533.57" y2="8.65285" gradientUnits="userSpaceOnUse">
<stop offset="0.116722" stop-color="white"/>
<stop offset="0.344845" stop-color="#FFDEB8"/>
<stop offset="0.609334" stop-color="#FFA53A"/>
<stop offset="0.823228" stop-color="#FF5107"/>
</linearGradient>
<linearGradient id="paint32_linear" x1="73.5273" y1="265.228" x2="533.57" y2="8.65285" gradientUnits="userSpaceOnUse">
<stop offset="0.116722" stop-color="white"/>
<stop offset="0.344845" stop-color="#FFDEB8"/>
<stop offset="0.609334" stop-color="#FFA53A"/>
<stop offset="0.823228" stop-color="#FF5107"/>
</linearGradient>
<linearGradient id="paint33_linear" x1="73.5273" y1="265.228" x2="533.57" y2="8.65285" gradientUnits="userSpaceOnUse">
<stop offset="0.116722" stop-color="white"/>
<stop offset="0.344845" stop-color="#FFDEB8"/>
<stop offset="0.609334" stop-color="#FFA53A"/>
<stop offset="0.823228" stop-color="#FF5107"/>
</linearGradient>
<linearGradient id="paint34_linear" x1="73.5273" y1="265.228" x2="533.57" y2="8.65285" gradientUnits="userSpaceOnUse">
<stop offset="0.116722" stop-color="white"/>
<stop offset="0.344845" stop-color="#FFDEB8"/>
<stop offset="0.609334" stop-color="#FFA53A"/>
<stop offset="0.823228" stop-color="#FF5107"/>
</linearGradient>
<linearGradient id="paint35_linear" x1="73.5273" y1="265.228" x2="533.57" y2="8.65285" gradientUnits="userSpaceOnUse">
<stop offset="0.116722" stop-color="white"/>
<stop offset="0.344845" stop-color="#FFDEB8"/>
<stop offset="0.609334" stop-color="#FFA53A"/>
<stop offset="0.823228" stop-color="#FF5107"/>
</linearGradient>
<linearGradient id="paint36_linear" x1="73.5273" y1="265.228" x2="533.57" y2="8.65285" gradientUnits="userSpaceOnUse">
<stop offset="0.116722" stop-color="white"/>
<stop offset="0.344845" stop-color="#FFDEB8"/>
<stop offset="0.609334" stop-color="#FFA53A"/>
<stop offset="0.823228" stop-color="#FF5107"/>
</linearGradient>
<linearGradient id="paint37_linear" x1="73.5273" y1="265.228" x2="533.57" y2="8.65285" gradientUnits="userSpaceOnUse">
<stop offset="0.116722" stop-color="white"/>
<stop offset="0.344845" stop-color="#FFDEB8"/>
<stop offset="0.609334" stop-color="#FFA53A"/>
<stop offset="0.823228" stop-color="#FF5107"/>
</linearGradient>
<linearGradient id="paint38_linear" x1="73.5273" y1="265.228" x2="533.57" y2="8.65285" gradientUnits="userSpaceOnUse">
<stop offset="0.116722" stop-color="white"/>
<stop offset="0.344845" stop-color="#FFDEB8"/>
<stop offset="0.609334" stop-color="#FFA53A"/>
<stop offset="0.823228" stop-color="#FF5107"/>
</linearGradient>
<linearGradient id="paint39_linear" x1="73.5273" y1="265.228" x2="533.57" y2="8.65285" gradientUnits="userSpaceOnUse">
<stop offset="0.116722" stop-color="white"/>
<stop offset="0.344845" stop-color="#FFDEB8"/>
<stop offset="0.609334" stop-color="#FFA53A"/>
<stop offset="0.823228" stop-color="#FF5107"/>
</linearGradient>
</defs>
</svg>
